<?xml version="1.0" encoding="utf-8"?>
<!-- Generator: Adobe Illustrator 18.0.0, SVG Export Plug-In . SVG Version: 6.00 Build 0)  -->
<!DOCTYPE svg PUBLIC "-//W3C//DTD SVG 1.1//EN" "http://www.w3.org/Graphics/SVG/1.1/DTD/svg11.dtd">
<svg version="1.1" id="Слой_1" xmlns="http://www.w3.org/2000/svg" xmlns:xlink="http://www.w3.org/1999/xlink" x="0px" y="0px"
	 width="48px" height="40px" viewBox="0 0 48 40" enable-background="new 0 0 48 40" xml:space="preserve">
<g>
	<g>
		<path fill="#3399FF" d="M47.7,0.4c-0.3-0.3-0.6-0.4-1-0.3L0.8,12.4c-0.4,0.1-0.6,0.4-0.7,0.7c-0.1,0.4,0,0.7,0.3,1l11,9.2l5,14
			c0.1,0.4,0.5,0.6,0.8,0.7c0.4,0,0.8-0.2,1-0.5l3.3-5.6l9.1,7.8c0.2,0.2,0.4,0.2,0.6,0.2c0.1,0,0.2,0,0.2,0
			c0.3-0.1,0.6-0.3,0.7-0.6l15.7-38C48,1.1,47.9,0.6,47.7,0.4z M30.9,37.3l-9-7.7c-0.2-0.2-0.4-0.2-0.6-0.2c-0.1,0-0.1,0-0.2,0
			c-0.3,0-0.5,0.2-0.7,0.5l-2.8,4.8L13.4,23c0,0,0,0,0.1,0l17.2-8.4l-7,9.2c-0.3,0.4-0.2,1.1,0.2,1.4c0.2,0.1,0.4,0.2,0.6,0.2
			c0.3,0,0.6-0.1,0.8-0.4l9.5-12.6c0.3-0.4,0.3-0.9,0-1.2c-0.3-0.4-0.8-0.5-1.2-0.3l-21,10.2c-0.1,0.1-0.2,0.2-0.3,0.3l-9.1-7.6
			L45.2,2.5L30.9,37.3z"/>
	</g>
</g>
</svg>
