<?xml version="1.0" encoding="utf-8"?>
<!-- Generator: Adobe Illustrator 18.0.0, SVG Export Plug-In . SVG Version: 6.00 Build 0)  -->
<!DOCTYPE svg PUBLIC "-//W3C//DTD SVG 1.1//EN" "http://www.w3.org/Graphics/SVG/1.1/DTD/svg11.dtd">
<svg version="1.1" id="Слой_1" xmlns="http://www.w3.org/2000/svg" xmlns:xlink="http://www.w3.org/1999/xlink" x="0px" y="0px"
	 width="12px" height="15px" viewBox="0 0 12 15" enable-background="new 0 0 12 15" xml:space="preserve">
<g>
	<g>
		<path fill="#FFFFFF" d="M1.7,13.5c0,0,0.3,1.5,1.4,1.5H6c0,0,0,0,0,0h2.8c1.1,0,1.4-1.5,1.4-1.5l1.1-9.7H0.6L1.7,13.5z M8.5,5.1
			c0-0.2,0.2-0.4,0.5-0.4c0.2,0,0.4,0.2,0.4,0.5l-0.7,7.9c0,0.2-0.2,0.4-0.5,0.4c-0.2,0-0.4-0.2-0.4-0.5L8.5,5.1z M5.5,5.1
			c0-0.2,0.2-0.5,0.5-0.5s0.5,0.2,0.5,0.5v7.9c0,0.2-0.2,0.5-0.5,0.5s-0.5-0.2-0.5-0.5V5.1z M3,4.7c0.2,0,0.5,0.2,0.5,0.4L4.2,13
			c0,0.2-0.2,0.5-0.4,0.5c-0.2,0-0.5-0.2-0.5-0.4L2.6,5.2C2.6,5,2.7,4.7,3,4.7z M11.1,1.7H0.9C0,1.7,0,2.5,0,2.5V3h12V2.5
			C12,2.5,12,1.7,11.1,1.7z M7.7,0.8c0,0,0-0.8-0.9-0.8C5.9,0,6.1,0,5.3,0C4.4,0,4.3,0.8,4.3,0.8V1h3.3V0.8z"/>
	</g>
</g>
</svg>
