<?xml version="1.0" encoding="utf-8"?>
<!-- Generator: Adobe Illustrator 18.0.0, SVG Export Plug-In . SVG Version: 6.00 Build 0)  -->
<!DOCTYPE svg PUBLIC "-//W3C//DTD SVG 1.1//EN" "http://www.w3.org/Graphics/SVG/1.1/DTD/svg11.dtd">
<svg version="1.1" id="Слой_1" xmlns="http://www.w3.org/2000/svg" xmlns:xlink="http://www.w3.org/1999/xlink" x="0px" y="0px"
	 width="47px" height="47px" viewBox="-38 -37.3 47 47" enable-background="new -38 -37.3 47 47" xml:space="preserve">
<g>
	<g>
		<path fill="#3399FF" d="M-0.8-17.4l-10-10l-17.3,17.3l10,10L-0.8-17.4z M-18-1.8l-8.4-8.4l0.7-0.7l8.4,8.4L-18-1.8z M-3.2-16.6
			l-8.4-8.4l0.7-0.7l8.4,8.4L-3.2-16.6z"/>
		<path fill="#3399FF" d="M2.4-22.6l-0.9-0.9c-0.7,0.4-1.4,0.5-1.7,0.2s-0.3-1,0.2-1.7l-0.8-0.8c-0.7,0.4-1.4,0.5-1.7,0.2
			s-0.3-1,0.2-1.7l-0.8-0.8c-0.7,0.4-1.4,0.5-1.7,0.2s-0.3-1,0.2-1.7l-0.9-0.9c-1.5,1.3-4,1.2-5.8-0.3l-20.2,20.2
			c1.5,1.8,1.6,4.3,0.3,5.8l0.9,0.9c0.7-0.4,1.4-0.5,1.7-0.2c0.3,0.3,0.3,1-0.2,1.7l0.8,0.8c0.7-0.4,1.4-0.5,1.7-0.2s0.3,1-0.2,1.7
			l0.8,0.8c0.7-0.4,1.4-0.5,1.7-0.2c0.3,0.3,0.3,1-0.2,1.7l0.9,0.9c1.5-1.3,4-1.2,5.8,0.3L2.7-16.8C1.2-18.6,1.1-21.1,2.4-22.6z
			 M-18.1,1.3l-11.5-11.5l18.7-18.7L0.6-17.4L-18.1,1.3z"/>
	</g>
</g>
</svg>
