<?xml version="1.0" encoding="utf-8"?>
<!-- Generator: Adobe Illustrator 18.0.0, SVG Export Plug-In . SVG Version: 6.00 Build 0)  -->
<!DOCTYPE svg PUBLIC "-//W3C//DTD SVG 1.1//EN" "http://www.w3.org/Graphics/SVG/1.1/DTD/svg11.dtd">
<svg version="1.1" id="Слой_1" xmlns="http://www.w3.org/2000/svg" xmlns:xlink="http://www.w3.org/1999/xlink" x="0px" y="0px"
	 viewBox="0 0 37 37" enable-background="new 0 0 37 37" xml:space="preserve">
<g>
	<g>
		<path fill="#FFFFFF" d="M30.2,13.6c0,0-0.2-1.7-0.9-2.5c-0.9-0.9-1.9-0.9-2.4-1c-3.3-0.3-8.3-0.3-8.3-0.3l0,0c0,0-5,0-8.3,0.3
			c-0.5,0.1-1.5,0.1-2.4,1c-0.8,0.8-0.9,2.5-0.9,2.5s-0.3,2-0.3,4v1.9c0,2,0.3,4,0.3,4s0.2,1.7,0.9,2.5c0.9,0.9,2.1,0.9,2.7,1
			c1.9,0.2,8.1,0.3,8.1,0.3s5,0,8.3-0.3c0.5-0.1,1.5-0.1,2.4-1c0.8-0.8,0.9-2.5,0.9-2.5s0.3-2,0.3-4v-1.9
			C30.5,15.6,30.2,13.6,30.2,13.6z M16,21.7v-6.9l6.5,3.4L16,21.7z"/>
	</g>
</g>
</svg>
