<?xml version="1.0" encoding="utf-8"?>
<!-- Generator: Adobe Illustrator 18.0.0, SVG Export Plug-In . SVG Version: 6.00 Build 0)  -->
<!DOCTYPE svg PUBLIC "-//W3C//DTD SVG 1.1//EN" "http://www.w3.org/Graphics/SVG/1.1/DTD/svg11.dtd">
<svg version="1.1" id="Слой_1" xmlns="http://www.w3.org/2000/svg" xmlns:xlink="http://www.w3.org/1999/xlink" x="0px" y="0px"
	 width="18px" height="19px" viewBox="0.5 -0.5 18 19" enable-background="new 0.5 -0.5 18 19" xml:space="preserve">
<path fill="#2D2D2D" d="M16,9.7c0-0.2,0-0.4,0-0.7c0-0.4,0-0.8-0.1-1.3l2.3-2.1l-1.8-3.3l-3.2,1.2c-0.5-0.3-1-0.6-1.5-0.7l-0.6-3.3
	H7.4L6.8,3c-0.5,0.2-1,0.5-1.4,0.9l-3-1.1L0.5,6.1L3,8.3C3,8.5,3,8.8,3,9c0,0.4,0,0.8,0.1,1.3l-2.3,2.1l1.8,3.3l3.2-1.2
	c0.5,0.3,1,0.6,1.5,0.7l0.6,3.3h3.7l0.6-3.5c0.5-0.2,1-0.5,1.4-0.9l3,1.1l1.8-3.3L16,9.7z M9.5,12.6c-2,0-3.5-1.6-3.5-3.6
	c0-2,1.6-3.6,3.5-3.6C11.5,5.4,13,7,13,9C13,11,11.5,12.6,9.5,12.6z"/>
</svg>
