<?xml version="1.0" encoding="utf-8"?>
<!-- Generator: Adobe Illustrator 18.0.0, SVG Export Plug-In . SVG Version: 6.00 Build 0)  -->
<!DOCTYPE svg PUBLIC "-//W3C//DTD SVG 1.1//EN" "http://www.w3.org/Graphics/SVG/1.1/DTD/svg11.dtd">
<svg version="1.1" id="Слой_1" xmlns="http://www.w3.org/2000/svg" xmlns:xlink="http://www.w3.org/1999/xlink" x="0px" y="0px"
	 width="15.8px" height="15.8px" viewBox="0 0 15.8 15.8" enable-background="new 0 0 15.8 15.8" xml:space="preserve">
<path fill="#9F9F9E" d="M15.5,14L9.4,7.9l6.1-6.1c0.2-0.2,0.3-0.5,0.3-0.8c0-0.3-0.1-0.5-0.3-0.7c-0.4-0.4-1.1-0.4-1.5,0.1L7.9,6.4
	L1.8,0.3C1.4-0.1,0.7-0.1,0.3,0.3C0.1,0.5,0,0.8,0,1c0,0.3,0.1,0.6,0.3,0.8l6.1,6.1L0.3,14c-0.4,0.4-0.4,1.1,0,1.5
	c0.4,0.4,1.1,0.4,1.5-0.1l6.1-6.1l6.1,6.1c0.4,0.4,1.1,0.5,1.5,0.1C15.9,15.1,15.9,14.4,15.5,14z"/>
</svg>
