<?xml version="1.0" encoding="utf-8"?>
<!-- Generator: Adobe Illustrator 18.0.0, SVG Export Plug-In . SVG Version: 6.00 Build 0)  -->
<!DOCTYPE svg PUBLIC "-//W3C//DTD SVG 1.1//EN" "http://www.w3.org/Graphics/SVG/1.1/DTD/svg11.dtd">
<svg version="1.1" id="Слой_1" xmlns="http://www.w3.org/2000/svg" xmlns:xlink="http://www.w3.org/1999/xlink" x="0px" y="0px"
	 width="16px" height="21px" viewBox="0 0 16 21" enable-background="new 0 0 16 21" xml:space="preserve">
<g>
	<g>
		<path fill="#1D2026" d="M8.2,16.7H16c0,0-0.2-2-1-2.9c-0.8-0.8-1.4-1.2-1.4-2c0-0.8,0-4,0-4s0.3-4-3.9-5.2c0-0.5,0-1.3,0-1.3
			S9.8,0.2,8.2,0c0,0,0,0,0,0C8.1,0,8.1,0,8,0C7.9,0,7.9,0,7.8,0c0,0,0,0,0,0C6.2,0.2,6.4,1.3,6.4,1.3s0,0.8,0,1.3
			C2.1,3.8,2.5,7.8,2.5,7.8s0,3.2,0,4c0,0.8-0.6,1.2-1.4,2c-0.8,0.8-1,2.9-1,2.9h7.8H8.2z M8,21c1.4,0,2.5-1.1,2.5-2.6h-5
			C5.5,19.9,6.6,21,8,21z"/>
	</g>
</g>
</svg>
