<?xml version="1.0" encoding="utf-8"?>
<!-- Generator: Adobe Illustrator 18.0.0, SVG Export Plug-In . SVG Version: 6.00 Build 0)  -->
<!DOCTYPE svg PUBLIC "-//W3C//DTD SVG 1.1//EN" "http://www.w3.org/Graphics/SVG/1.1/DTD/svg11.dtd">
<svg version="1.1" id="Слой_1" xmlns="http://www.w3.org/2000/svg" xmlns:xlink="http://www.w3.org/1999/xlink" x="0px" y="0px"
	 width="16px" height="17px" viewBox="4.5 17 16 17" enable-background="new 4.5 17 16 17" xml:space="preserve">
<g>
	<g>
		<path fill="#D5D5D5" d="M19.9,27.1c0.5-0.6,1.3-2.5-1.2-3.2c-1,0-2.7,0-2.7,0s-0.5,0.1-0.5-0.3c0-0.4,0.1-0.8,0.5-1.2
			c0.4-0.5,1.2-2,1.1-3c-0.1-1-0.4-2.3-1.3-2.3c-0.9,0-0.9,0.9-1,1.6c-0.4,2.3-1.8,2.5-3,4.1c-1,1.4-0.9,1.9-1.3,2.3
			c-0.9,0.8-1.2,0.6-1.4,1v7.5L9.8,34h8.7c0,0,1.3-0.4,0.7-1.9c0.6-0.7,0.9-1.4,0.4-2.3C20.4,29.2,20.8,28,19.9,27.1z M8.3,25.6H4.6
			c-0.1,0-0.1,0.1-0.1,0.1v8.1c0,0.1,0.1,0.1,0.1,0.1h3.7c0.1,0,0.1-0.1,0.1-0.1v-8.1C8.5,25.7,8.4,25.6,8.3,25.6z"/>
	</g>
</g>
</svg>
