<?xml version="1.0" encoding="utf-8"?>
<!-- Generator: Adobe Illustrator 18.0.0, SVG Export Plug-In . SVG Version: 6.00 Build 0)  -->
<!DOCTYPE svg PUBLIC "-//W3C//DTD SVG 1.1//EN" "http://www.w3.org/Graphics/SVG/1.1/DTD/svg11.dtd">
<svg version="1.1" id="Слой_1" xmlns="http://www.w3.org/2000/svg" xmlns:xlink="http://www.w3.org/1999/xlink" x="0px" y="0px"
	 width="14.1px" height="14.1px" viewBox="0 0 14.1 14.1" enable-background="new 0 0 14.1 14.1" xml:space="preserve">
<path fill="#2D2D2D" d="M12.7,11.2L8.6,7.1L12.7,3C12.9,2.8,13,2.5,13,2.2s-0.1-0.5-0.3-0.7c-0.4-0.4-1.1-0.4-1.5,0.1l-4.1,4L3,1.5
	c-0.4-0.4-1.1-0.4-1.5,0C1.3,1.7,1.2,2,1.2,2.2c0,0.3,0.1,0.6,0.3,0.8l4.1,4.1l-4.1,4.1c-0.4,0.4-0.4,1.1,0,1.5s1.1,0.4,1.5-0.1
	L7,8.5l4.1,4.1c0.4,0.4,1.1,0.5,1.5,0.1S13.1,11.6,12.7,11.2z"/>
</svg>
