<?xml version="1.0" encoding="utf-8"?>
<!-- Generator: Adobe Illustrator 18.0.0, SVG Export Plug-In . SVG Version: 6.00 Build 0)  -->
<!DOCTYPE svg PUBLIC "-//W3C//DTD SVG 1.1//EN" "http://www.w3.org/Graphics/SVG/1.1/DTD/svg11.dtd">
<svg version="1.1" id="Слой_1" xmlns="http://www.w3.org/2000/svg" xmlns:xlink="http://www.w3.org/1999/xlink" x="0px" y="0px"
	 width="60px" height="60px" viewBox="0 0 60 60" enable-background="new 0 0 60 60" xml:space="preserve">
<g opacity="0.8">
	<g>
		<circle fill="#3399FF" cx="30" cy="30" r="30"/>
	</g>
</g>
<g>
	<g>
		<path fill="#FFFFFF" d="M42.7,27.9v0.9c3,0.9,4.9,2.1,4.9,3.3c0,2-4.8,3.7-11.5,4.4v2c8.1-0.8,13.9-3.1,13.9-5.9
			C50,30.8,47.2,29.1,42.7,27.9z M30.7,36.8c-0.2,0-0.4,0-0.7,0c-9.7,0-17.6-2.1-17.6-4.7c0-1.4,2.2-2.7,5.7-3.6v-0.8
			c-4.9,1.1-8.1,2.9-8.1,5c0,3.4,9,6.1,20,6.1c0.2,0,0.4,0,0.7,0v2.7l3.8-3.8L30.7,34V36.8z M21.5,30.6c-0.8,0-1.3-0.4-1.8-0.9
			l-1.4,1.4c0.5,0.8,1.8,1.5,3.1,1.5c1.8,0,3.7-1,3.7-2.9c0-1.2-0.8-1.9-1.2-2.2c0.3-0.3,1-0.8,1-1.7c0-1.7-1.2-2.8-3.4-2.8
			c-1.2,0-2.4,0.7-2.9,1.3l1.3,1.5c0.5-0.5,1.1-0.8,1.6-0.8c0.6,0,1.2,0.3,1.2,1c0,0.6-0.5,0.9-1.1,0.9h-1v1.6h1
			c0.7,0,1.1,0.3,1.1,1C22.7,30.3,22.2,30.6,21.5,30.6z M29.5,32.6c2.2-0.1,3.5-1.6,3.5-3.3c0-1.8-1.4-3-3.1-3
			c-0.7,0-1.4,0.3-1.8,0.7c0.1-1,0.8-1.8,1.8-1.8c0.8,0,1.5,0.4,2,0.7l0.9-1.7c-0.8-0.7-2.3-1.1-3.2-1c-3.5,0.1-4,3.6-3.9,5.4
			C25.7,31.1,27.3,32.7,29.5,32.6z M29.5,28.2c0.8,0,1.1,0.7,1.1,1.2c0,0.6-0.5,1.1-1.2,1.1c-0.9,0-1.2-0.9-1.2-1.6
			C28.3,28.7,28.9,28.2,29.5,28.2z M37.2,32.6c2.4,0,3.8-1.8,3.8-4.7c0-2.9-1.2-4.8-3.8-4.8c-2.2,0-3.8,1.9-3.8,4.8
			C33.4,31.1,35,32.6,37.2,32.6z M37.1,25.2c0.7,0,1.2,1.1,1.2,2.7c0,1.6-0.5,2.7-1.1,2.7c-0.5,0-1.2-1.1-1.2-2.8
			C36,26.2,36.6,25.2,37.1,25.2z M43,25.9c1,0,1.7-0.8,1.7-1.7c0-0.9-0.8-1.7-1.7-1.7c-1,0-1.7,0.8-1.7,1.7
			C41.2,25.1,42,25.9,43,25.9z M43,23.3c0.5,0,0.9,0.4,0.9,0.9c0,0.5-0.4,0.9-0.9,0.9c-0.5,0-0.9-0.4-0.9-0.9
			C42,23.7,42.4,23.3,43,23.3z"/>
	</g>
</g>
</svg>
