<?xml version="1.0" encoding="utf-8"?>
<!-- Generator: Adobe Illustrator 18.0.0, SVG Export Plug-In . SVG Version: 6.00 Build 0)  -->
<!DOCTYPE svg PUBLIC "-//W3C//DTD SVG 1.1//EN" "http://www.w3.org/Graphics/SVG/1.1/DTD/svg11.dtd">
<svg version="1.1" id="Слой_1" xmlns="http://www.w3.org/2000/svg" xmlns:xlink="http://www.w3.org/1999/xlink" x="0px" y="0px"
	 width="47px" height="47px" viewBox="-38 -37.3 47 47" enable-background="new -38 -37.3 47 47" xml:space="preserve">
<g>
	<g>
		<g>
			<path fill="#3399FF" d="M-21.7-6.5c-0.7-0.7-0.7-1.9,0-2.6L-9.9-21c0.7-0.7,1.9-0.7,2.6,0c0.7,0.7,0.7,1.9,0,2.6L-19.1-6.5
				C-19.8-5.8-21-5.8-21.7-6.5z"/>
		</g>
	</g>
	<g>
		<g>
			<path fill="#3399FF" d="M-16-16.3l2.9-2.9c-0.1-0.6,0.1-1.3,0.7-1.9l5.4-5.4c1.7-1.7,3.7-0.1,4.5,0.7c0.8,0.8,2.4,2.8,0.7,4.5
				l-5.4,5.4c-0.6,0.6-1.3,0.8-1.9,0.7l-2.9,2.9c2.6,1.4,5.4,1.1,7.4-1l5.4-5.4c2.7-2.7,2.4-6.6-0.7-9.7s-7-3.4-9.7-0.7l-5.4,5.4
				C-17.1-21.7-17.4-18.9-16-16.3z"/>
			<path fill="#3399FF" d="M-13-11.2l-2.9,2.9c0.1,0.6-0.1,1.3-0.7,1.9L-22-1c-1.7,1.7-3.7,0.1-4.5-0.7s-2.4-2.8-0.7-4.5l5.4-5.4
				c0.6-0.6,1.3-0.8,1.9-0.7l2.9-2.9c-2.6-1.4-5.4-1.1-7.4,1l-5.4,5.4c-2.7,2.7-2.4,6.6,0.7,9.7s7,3.4,9.7,0.7l5.4-5.4
				C-11.9-5.9-11.6-8.6-13-11.2z"/>
		</g>
	</g>
</g>
</svg>
