<?xml version="1.0" encoding="utf-8"?>
<!-- Generator: Adobe Illustrator 18.0.0, SVG Export Plug-In . SVG Version: 6.00 Build 0)  -->
<!DOCTYPE svg PUBLIC "-//W3C//DTD SVG 1.1//EN" "http://www.w3.org/Graphics/SVG/1.1/DTD/svg11.dtd">
<svg version="1.1" id="Слой_1" xmlns="http://www.w3.org/2000/svg" xmlns:xlink="http://www.w3.org/1999/xlink" x="0px" y="0px"
	 viewBox="0 0 39 39" enable-background="new 0 0 39 39" xml:space="preserve">
<g>
	<g>
		<path fill="#F58326" d="M19.5,19.9c3.4,0,6.2-2.8,6.2-6.2c0-3.4-2.8-6.2-6.2-6.2c-3.4,0-6.2,2.8-6.2,6.2
			C13.3,17.1,16.1,19.9,19.5,19.9z M19.5,11.1c1.4,0,2.6,1.1,2.6,2.6c0,1.4-1.2,2.6-2.6,2.6c-1.4,0-2.6-1.2-2.6-2.6
			C16.9,12.3,18.1,11.1,19.5,11.1z M22,24.9c1.3-0.3,2.5-0.8,3.6-1.5c0.9-0.5,1.1-1.7,0.6-2.5c-0.5-0.8-1.7-1.1-2.5-0.6
			c-2.6,1.6-5.8,1.6-8.4,0c-0.9-0.5-2-0.3-2.5,0.6c-0.5,0.8-0.3,2,0.6,2.5c1.1,0.7,2.4,1.2,3.6,1.5l-3.5,3.5c-0.7,0.7-0.7,1.9,0,2.6
			c0.4,0.4,0.8,0.5,1.3,0.5c0.5,0,0.9-0.2,1.3-0.5l3.4-3.4l3.4,3.4c0.7,0.7,1.9,0.7,2.6,0c0.7-0.7,0.7-1.9,0-2.6L22,24.9z"/>
	</g>
</g>
</svg>
