<?xml version="1.0" encoding="utf-8"?>
<!-- Generator: Adobe Illustrator 18.0.0, SVG Export Plug-In . SVG Version: 6.00 Build 0)  -->
<!DOCTYPE svg PUBLIC "-//W3C//DTD SVG 1.1//EN" "http://www.w3.org/Graphics/SVG/1.1/DTD/svg11.dtd">
<svg version="1.1" id="Слой_1" xmlns="http://www.w3.org/2000/svg" xmlns:xlink="http://www.w3.org/1999/xlink" x="0px" y="0px"
	 width="14px" height="14px" viewBox="0 0 14 14" enable-background="new 0 0 14 14" xml:space="preserve">
<g>
	<g>
		<path fill="#CFCFCF" d="M11.4,5.1c0,0-0.1-0.6-0.4-0.9c-0.4-0.4-0.7-0.4-0.9-0.4C8.9,3.7,7,3.7,7,3.7l0,0c0,0-1.9,0-3.2,0.1
			c-0.2,0-0.6,0-0.9,0.4C2.7,4.5,2.6,5.1,2.6,5.1S2.5,5.9,2.5,6.6v0.7c0,0.8,0.1,1.5,0.1,1.5s0.1,0.6,0.4,0.9c0.4,0.4,0.8,0.4,1,0.4
			C4.7,10.3,7,10.3,7,10.3s1.9,0,3.2-0.1c0.2,0,0.6,0,0.9-0.4c0.3-0.3,0.4-0.9,0.4-0.9s0.1-0.8,0.1-1.5V6.6
			C11.5,5.9,11.4,5.1,11.4,5.1z M6.1,8.2V5.6l2.4,1.3L6.1,8.2z"/>
	</g>
</g>
</svg>
