<?xml version="1.0" encoding="utf-8"?>
<!-- Generator: Adobe Illustrator 18.0.0, SVG Export Plug-In . SVG Version: 6.00 Build 0)  -->
<!DOCTYPE svg PUBLIC "-//W3C//DTD SVG 1.1//EN" "http://www.w3.org/Graphics/SVG/1.1/DTD/svg11.dtd">
<svg version="1.1" id="Слой_1" xmlns="http://www.w3.org/2000/svg" xmlns:xlink="http://www.w3.org/1999/xlink" x="0px" y="0px"
	 viewBox="0 0 37 37" enable-background="new 0 0 37 37" xml:space="preserve">
<g>
	<g>
		<path fill="#B93A2E" d="M22.7,8.6h-5.1c-0.7,0-1.4,0.1-2.2,0.3c-0.8,0.2-1.5,0.6-2.3,1.2c-1,1-1.6,2.2-1.6,3.5c0,1,0.4,2,1.1,2.8
			c0.8,0.9,1.8,1.3,3.1,1.3c0.3,0,0.6,0,0.9-0.1c-0.1,0.1-0.1,0.3-0.2,0.5c-0.1,0.2-0.1,0.4-0.1,0.6c0,0.4,0.1,0.7,0.3,0.9
			c0.2,0.3,0.3,0.6,0.5,0.8c-0.6,0-1.3,0.1-2.3,0.2c-0.9,0.2-1.8,0.5-2.7,0.9c-0.8,0.5-1.2,0.9-1.5,1.5c-0.3,0.6-0.5,1.1-0.5,1.6
			c0,0.9,0.5,1.8,1.3,2.6c0.9,0.8,2.3,1.1,4,1.1c2.2,0,3.8-0.6,4.9-1.5c1.1-0.9,1.6-2.1,1.6-3.3c0-0.9-0.2-1.6-0.6-2.2
			c-0.4-0.6-0.9-1-1.4-1.5l-0.9-0.8c-0.1-0.1-0.3-0.3-0.4-0.5c-0.2-0.2-0.2-0.4-0.2-0.7c0-0.3,0.1-0.6,0.2-0.8
			c0.1-0.2,0.3-0.4,0.4-0.6c0.3-0.2,0.5-0.5,0.8-0.7c0.2-0.2,0.4-0.5,0.6-0.8c0.4-0.6,0.6-1.3,0.6-2.2c0-0.5-0.1-0.9-0.2-1.3
			c-0.1-0.4-0.3-0.7-0.5-0.9c-0.2-0.3-0.4-0.6-0.6-0.8c-0.2-0.2-0.4-0.4-0.6-0.5h1.6L22.7,8.6z M19.9,22.8c0.4,0.5,0.7,1,0.7,1.7
			c0,0.9-0.3,1.5-0.9,2c-0.7,0.6-1.5,0.8-2.8,0.9c-1.3,0-2.4-0.3-3.2-0.9c-0.9-0.6-1.2-1.3-1.2-2.3c0-0.5,0.1-0.9,0.3-1.2
			c0.2-0.3,0.4-0.6,0.6-0.8c0.3-0.2,0.5-0.4,0.8-0.5c0.2-0.1,0.4-0.2,0.6-0.2c0.6-0.2,1.1-0.3,1.6-0.4c0.6-0.1,0.9-0.1,1-0.1
			c0.2,0,0.4,0,0.6,0C18.7,21.7,19.5,22.3,19.9,22.8z M19.1,15.2c-0.1,0.4-0.2,0.7-0.4,1c-0.5,0.5-1,0.7-1.7,0.8
			c-0.6,0-1-0.2-1.4-0.5c-0.4-0.3-0.8-0.8-1-1.2c-0.6-1-0.9-2-0.9-2.9c0-0.7,0.2-1.3,0.6-1.9c0.5-0.6,1-0.9,1.7-0.9
			c0.6,0,0.9,0.2,1.4,0.5c0.4,0.3,0.8,0.8,0.9,1.2c0.6,0.9,0.8,2,0.8,2.9C19.1,14.5,19.1,14.8,19.1,15.2z M30.7,16.7L30.7,16.7h-2.7
			v-2.8h-1.6v2.8h-2.8v1.5l0,0v0.1h2.7v2.8H28v-2.8h2.8V16.7L30.7,16.7z"/>
	</g>
</g>
</svg>
