<?xml version="1.0" encoding="utf-8"?>
<!-- Generator: Adobe Illustrator 18.0.0, SVG Export Plug-In . SVG Version: 6.00 Build 0)  -->
<!DOCTYPE svg PUBLIC "-//W3C//DTD SVG 1.1//EN" "http://www.w3.org/Graphics/SVG/1.1/DTD/svg11.dtd">
<svg version="1.1" id="Слой_1" xmlns="http://www.w3.org/2000/svg" xmlns:xlink="http://www.w3.org/1999/xlink" x="0px" y="0px"
	 width="14px" height="14px" viewBox="0 0 14 14" enable-background="new 0 0 14 14" xml:space="preserve">
<path fill="#CFCFCF" d="M9.8,7.2C9.5,6.9,9.2,6.8,8.7,6.7v0C9,6.5,9.3,6.3,9.5,6.1c0.2-0.3,0.3-0.6,0.3-0.9c0-0.3-0.1-0.5-0.2-0.8
	C9.4,4.2,9.2,4,9,3.9C8.7,3.8,8.5,3.7,8.2,3.6c-0.3,0-0.6,0-1.1,0H4.6v6.8h2.8c0.5,0,0.9,0,1.2-0.2c0.3-0.1,0.6-0.2,0.9-0.4
	C9.7,9.6,9.8,9.5,10,9.2s0.2-0.5,0.2-0.9C10.2,7.9,10,7.5,9.8,7.2z M7.8,5.9c0,0.1-0.2,0.2-0.3,0.3C7.4,6.3,7.3,6.3,7.2,6.3
	c-0.1,0-0.3,0-0.6,0H6.3V4.9h0.1c0.3,0,0.5,0,0.7,0c0.2,0,0.3,0,0.4,0.1c0.1,0,0.2,0.2,0.3,0.3c0.1,0.1,0.1,0.2,0.1,0.3
	C7.9,5.7,7.9,5.8,7.8,5.9z M8.3,8.7C8.2,8.9,8.1,9,7.9,9C7.8,9.1,7.6,9.2,7.4,9.2c-0.2,0-0.5,0-0.9,0H6.4V7.4h0.3c0.3,0,0.6,0,0.8,0
	c0.2,0,0.3,0,0.4,0.1c0.2,0.1,0.3,0.2,0.4,0.3c0.1,0.1,0.2,0.3,0.2,0.5C8.4,8.5,8.4,8.6,8.3,8.7z"/>
</svg>
