<?xml version="1.0" encoding="utf-8"?>
<!-- Generator: Adobe Illustrator 18.0.0, SVG Export Plug-In . SVG Version: 6.00 Build 0)  -->
<!DOCTYPE svg PUBLIC "-//W3C//DTD SVG 1.1//EN" "http://www.w3.org/Graphics/SVG/1.1/DTD/svg11.dtd">
<svg version="1.1" id="Слой_1" xmlns="http://www.w3.org/2000/svg" xmlns:xlink="http://www.w3.org/1999/xlink" x="0px" y="0px"
	 viewBox="0 0 37 37" enable-background="new 0 0 37 37" xml:space="preserve">
<path fill="#FFFFFF" d="M29.2,12L29.2,12L29.2,12 M22.6,9.9c-2.5,0-4.4,2-4.4,4.4c0,0.4,0,0.7,0.1,0.9c-3.6-0.2-6.9-1.9-9-4.6
	c-0.4,0.7-0.6,1.4-0.6,2.2c0,1.5,0.8,2.8,2,3.6c-0.8,0-1.4-0.2-2-0.6c0,0,0,0,0,0.1c0,2.1,1.5,3.9,3.5,4.3c-0.4,0.1-0.8,0.2-1.1,0.2
	c-0.3,0-0.6,0-0.9-0.1c0.6,1.7,2.2,3,4.1,3c-1.5,1.1-3.4,1.9-5.4,1.9c-0.4,0-0.7,0-1-0.1c1.9,1.2,4.3,2,6.7,2
	c8.1,0,12.5-6.6,12.5-12.4c0-0.2,0-0.4,0-0.6c0.9-0.6,1.6-1.4,2.2-2.3c-0.8,0.4-1.6,0.6-2.6,0.7c0.9-0.6,1.6-1.4,1.9-2.4
	c-0.9,0.5-1.8,0.9-2.8,1C25,10.4,23.9,9.9,22.6,9.9"/>
</svg>
