<?xml version="1.0" encoding="utf-8"?>
<!-- Generator: Adobe Illustrator 18.0.0, SVG Export Plug-In . SVG Version: 6.00 Build 0)  -->
<!DOCTYPE svg PUBLIC "-//W3C//DTD SVG 1.1//EN" "http://www.w3.org/Graphics/SVG/1.1/DTD/svg11.dtd">
<svg version="1.1" id="Слой_1" xmlns="http://www.w3.org/2000/svg" xmlns:xlink="http://www.w3.org/1999/xlink" x="0px" y="0px"
	 width="14px" height="14px" viewBox="0 0 14 14" enable-background="new 0 0 14 14" xml:space="preserve">
<g>
	<g>
		<path fill="#CFCFCF" d="M7,7.1c1.2,0,2.2-1,2.2-2.2S8.2,2.7,7,2.7s-2.2,1-2.2,2.2S5.8,7.1,7,7.1z M7,4c0.5,0,0.9,0.4,0.9,0.9
			c0,0.5-0.4,0.9-0.9,0.9S6.1,5.4,6.1,4.9S6.5,4,7,4z M7.9,8.9c0.5-0.1,0.9-0.3,1.3-0.5c0.3-0.2,0.4-0.6,0.2-0.9
			C9.2,7.2,8.8,7.1,8.5,7.3c-0.9,0.6-2.1,0.6-3,0C5.2,7.1,4.8,7.2,4.6,7.5C4.4,7.8,4.5,8.2,4.8,8.4c0.4,0.3,0.9,0.4,1.3,0.5
			l-1.3,1.3c-0.3,0.3-0.3,0.7,0,0.9c0.1,0.1,0.3,0.2,0.5,0.2s0.3-0.1,0.5-0.2L7,9.9l1.2,1.2c0.3,0.3,0.7,0.3,0.9,0
			c0.3-0.3,0.3-0.7,0-0.9L7.9,8.9z"/>
	</g>
</g>
</svg>
