<?xml version="1.0" encoding="utf-8"?>
<!-- Generator: Adobe Illustrator 18.0.0, SVG Export Plug-In . SVG Version: 6.00 Build 0)  -->
<!DOCTYPE svg PUBLIC "-//W3C//DTD SVG 1.1//EN" "http://www.w3.org/Graphics/SVG/1.1/DTD/svg11.dtd">
<svg version="1.1" id="Слой_1" xmlns="http://www.w3.org/2000/svg" xmlns:xlink="http://www.w3.org/1999/xlink" x="0px" y="0px"
	 width="60px" height="60px" viewBox="0 0 60 60" enable-background="new 0 0 60 60" xml:space="preserve">
<g opacity="0.8">
	<g>
		<circle fill="#3FB4C6" cx="30" cy="30" r="30"/>
	</g>
</g>
<path fill="#FFFFFF" d="M35.2,18.4c-4.6-4.6-12.1-4.6-16.8,0c-4.6,4.6-4.6,12.1,0,16.7c3.9,3.9,9.8,4.5,14.4,1.8l7.5,7.5
	c0.6,0.6,1.5,0.6,2.1,0l2.1-2.1c0.6-0.6,0.6-1.5,0-2.1L37,32.8C39.7,28.3,39.1,22.3,35.2,18.4z M32.4,32.4c-3.1,3.1-8.1,3.1-11.1,0
	c-3.1-3.1-3.1-8,0-11.1c3.1-3.1,8.1-3.1,11.1,0C35.4,24.3,35.4,29.3,32.4,32.4z"/>
</svg>
