<?xml version="1.0" encoding="utf-8"?>
<!-- Generator: Adobe Illustrator 18.0.0, SVG Export Plug-In . SVG Version: 6.00 Build 0)  -->
<!DOCTYPE svg PUBLIC "-//W3C//DTD SVG 1.1//EN" "http://www.w3.org/Graphics/SVG/1.1/DTD/svg11.dtd">
<svg version="1.1" id="Слой_1" xmlns="http://www.w3.org/2000/svg" xmlns:xlink="http://www.w3.org/1999/xlink" x="0px" y="0px"
	 viewBox="0 0 39 39" enable-background="new 0 0 39 39" xml:space="preserve">
<path fill-rule="evenodd" clip-rule="evenodd" fill="#007598" d="M11.6,8.9h15.7c1.5,0,2.7,1.2,2.7,2.7v15.8c0,1.5-1.2,2.7-2.7,2.7
	H11.6c-1.5,0-2.7-1.2-2.7-2.7V11.6C8.9,10.1,10.1,8.9,11.6,8.9L11.6,8.9z M24.3,11.3c-0.5,0-1,0.4-1,1v2.3c0,0.5,0.4,1,1,1h2.4
	c0.5,0,1-0.4,1-1v-2.3c0-0.5-0.4-1-1-1H24.3L24.3,11.3z M27.7,17.9h-1.9c0.2,0.6,0.3,1.2,0.3,1.8c0,3.5-2.9,6.4-6.6,6.4
	c-3.6,0-6.6-2.9-6.6-6.4c0-0.6,0.1-1.2,0.3-1.8h-1.9v9c0,0.5,0.4,0.8,0.8,0.8h14.7c0.5,0,0.8-0.4,0.8-0.8V17.9L27.7,17.9z
	 M19.5,15.3c-2.3,0-4.2,1.8-4.2,4.1c0,2.3,1.9,4.1,4.2,4.1c2.3,0,4.2-1.8,4.2-4.1C23.8,17.2,21.9,15.3,19.5,15.3z"/>
</svg>
