<?xml version="1.0" encoding="utf-8"?>
<!-- Generator: Adobe Illustrator 18.0.0, SVG Export Plug-In . SVG Version: 6.00 Build 0)  -->
<!DOCTYPE svg PUBLIC "-//W3C//DTD SVG 1.1//EN" "http://www.w3.org/Graphics/SVG/1.1/DTD/svg11.dtd">
<svg version="1.1" id="Слой_1" xmlns="http://www.w3.org/2000/svg" xmlns:xlink="http://www.w3.org/1999/xlink" x="0px" y="0px"
	 viewBox="0 0 37 37" enable-background="new 0 0 37 37" xml:space="preserve">
<g>
	<g>
		<path fill="#FFFFFF" d="M18.5,18.9c3.2,0,5.9-2.7,5.9-5.9s-2.7-5.9-5.9-5.9s-5.9,2.7-5.9,5.9S15.3,18.9,18.5,18.9z M18.5,10.5
			c1.3,0,2.5,1,2.5,2.5c0,1.3-1.1,2.5-2.5,2.5S16,14.3,16,13S17.2,10.5,18.5,10.5z M20.9,23.6c1.2-0.3,2.4-0.8,3.4-1.4
			c0.9-0.5,1-1.6,0.6-2.4s-1.6-1-2.4-0.6c-2.5,1.5-5.5,1.5-8,0c-0.9-0.5-1.9-0.3-2.4,0.6c-0.5,0.8-0.3,1.9,0.6,2.4
			c1,0.7,2.3,1.1,3.4,1.4l-3.3,3.3c-0.7,0.7-0.7,1.8,0,2.5c0.4,0.4,0.8,0.5,1.2,0.5c0.5,0,0.9-0.2,1.2-0.5l3.2-3.2l3.2,3.2
			c0.7,0.7,1.8,0.7,2.5,0c0.7-0.7,0.7-1.8,0-2.5L20.9,23.6z"/>
	</g>
</g>
</svg>
