<?xml version="1.0" encoding="utf-8"?>
<!-- Generator: Adobe Illustrator 18.0.0, SVG Export Plug-In . SVG Version: 6.00 Build 0)  -->
<!DOCTYPE svg PUBLIC "-//W3C//DTD SVG 1.1//EN" "http://www.w3.org/Graphics/SVG/1.1/DTD/svg11.dtd">
<svg version="1.1" id="Слой_1" xmlns="http://www.w3.org/2000/svg" xmlns:xlink="http://www.w3.org/1999/xlink" x="0px" y="0px"
	 viewBox="0 0 39 39" enable-background="new 0 0 39 39" xml:space="preserve">
<path fill="#1589C7" d="M30.8,12.6L30.8,12.6L30.8,12.6 M23.8,10.4c-2.6,0-4.6,2.1-4.6,4.6c0,0.4,0,0.7,0.1,1
	c-3.8-0.2-7.3-2-9.5-4.8c-0.4,0.7-0.6,1.5-0.6,2.3c0,1.6,0.8,3,2.1,3.8c-0.8,0-1.5-0.2-2.1-0.6c0,0,0,0,0,0.1c0,2.2,1.6,4.1,3.7,4.5
	c-0.4,0.1-0.8,0.2-1.2,0.2c-0.3,0-0.6,0-0.9-0.1c0.6,1.8,2.3,3.2,4.3,3.2c-1.6,1.2-3.6,2-5.7,2c-0.4,0-0.7,0-1.1-0.1
	c2,1.3,4.5,2.1,7.1,2.1c8.5,0,13.2-7,13.2-13.1c0-0.2,0-0.4,0-0.6c0.9-0.6,1.7-1.5,2.3-2.4c-0.8,0.4-1.7,0.6-2.7,0.7
	c1-0.6,1.7-1.5,2-2.5c-0.9,0.5-1.9,0.9-2.9,1.1C26.4,11,25.2,10.4,23.8,10.4"/>
</svg>
