<?xml version="1.0" encoding="utf-8"?>
<!-- Generator: Adobe Illustrator 18.0.0, SVG Export Plug-In . SVG Version: 6.00 Build 0)  -->
<!DOCTYPE svg PUBLIC "-//W3C//DTD SVG 1.1//EN" "http://www.w3.org/Graphics/SVG/1.1/DTD/svg11.dtd">
<svg version="1.1" id="Слой_1" xmlns="http://www.w3.org/2000/svg" xmlns:xlink="http://www.w3.org/1999/xlink" x="0px" y="0px"
	 width="14px" height="14px" viewBox="0 0 14 14" enable-background="new 0 0 14 14" xml:space="preserve">
<path fill="#CFCFCF" d="M4.2,3.2h5.6c0.5,0,1,0.4,1,1v5.7c0,0.5-0.4,1-1,1H4.2c-0.5,0-1-0.4-1-1V4.2C3.2,3.6,3.6,3.2,4.2,3.2
	L4.2,3.2z M8.7,4.1c-0.2,0-0.4,0.1-0.4,0.4v0.8c0,0.2,0.1,0.4,0.4,0.4h0.9c0.2,0,0.4-0.1,0.4-0.4V4.4c0-0.2-0.1-0.4-0.4-0.4H8.7
	L8.7,4.1z M9.9,6.4H9.3c0.1,0.2,0.1,0.4,0.1,0.6c0,1.3-1,2.3-2.4,2.3c-1.3,0-2.4-1-2.4-2.3c0-0.2,0-0.4,0.1-0.6H4.1v3.2
	c0,0.2,0.1,0.3,0.3,0.3h5.3c0.2,0,0.3-0.1,0.3-0.3L9.9,6.4L9.9,6.4z M7,5.5C6.2,5.5,5.5,6.1,5.5,7S6.2,8.4,7,8.4S8.5,7.8,8.5,7
	C8.5,6.2,7.9,5.5,7,5.5z"/>
</svg>
