<?xml version="1.0" encoding="utf-8"?>
<!-- Generator: Adobe Illustrator 18.0.0, SVG Export Plug-In . SVG Version: 6.00 Build 0)  -->
<!DOCTYPE svg PUBLIC "-//W3C//DTD SVG 1.1//EN" "http://www.w3.org/Graphics/SVG/1.1/DTD/svg11.dtd">
<svg version="1.1" id="Слой_1" xmlns="http://www.w3.org/2000/svg" xmlns:xlink="http://www.w3.org/1999/xlink" x="0px" y="0px"
	 width="18px" height="11px" viewBox="3 0 18 11" enable-background="new 3 0 18 11" xml:space="preserve">
<g>
	<g>
		<path fill="#666666" d="M21,5.5L21,5.5c-0.1-1.4-5.8-5.4-9-5.5v0c0,0,0,0,0,0c0,0,0,0,0,0v0C8.8,0.1,3.1,4.1,3,5.5h0c0,0,0,0,0,0
			c0,0,0,0,0,0h0c0.1,1.4,5.8,5.4,9,5.5v0c0,0,0,0,0,0s0,0,0,0v0C15.2,10.9,20.9,6.9,21,5.5L21,5.5C21,5.5,21,5.5,21,5.5
			C21,5.5,21,5.5,21,5.5z M12,9.3c-2.2,0-4-1.7-4-3.8c0-2.1,1.8-3.8,4-3.8s4,1.7,4,3.8C16,7.6,14.2,9.3,12,9.3z M12,3.2
			c-1.3,0-2.4,1-2.4,2.3c0,1.3,1.1,2.3,2.4,2.3s2.4-1,2.4-2.3C14.4,4.2,13.3,3.2,12,3.2z M12.8,5.7c-0.4,0-0.8-0.3-0.8-0.8
			c0-0.4,0.4-0.8,0.8-0.8c0.4,0,0.8,0.3,0.8,0.8C13.6,5.3,13.2,5.7,12.8,5.7z"/>
	</g>
</g>
</svg>
