<?xml version="1.0" encoding="utf-8"?>
<!-- Generator: Adobe Illustrator 18.0.0, SVG Export Plug-In . SVG Version: 6.00 Build 0)  -->
<!DOCTYPE svg PUBLIC "-//W3C//DTD SVG 1.1//EN" "http://www.w3.org/Graphics/SVG/1.1/DTD/svg11.dtd">
<svg version="1.1" id="Слой_1" xmlns="http://www.w3.org/2000/svg" xmlns:xlink="http://www.w3.org/1999/xlink" x="0px" y="0px"
	 width="16px" height="16px" viewBox="0 0 16 16" enable-background="new 0 0 16 16" xml:space="preserve">
<path fill-rule="evenodd" clip-rule="evenodd" fill="#4AABBB" d="M13,16H3c-1.7,0-3-1.3-3-3V3c0-1.3,0.8-2.4,2-2.8v1.3
	C2,2.3,2.7,3,3.5,3S5,2.3,5,1.5V0h6v1.5C11,2.3,11.7,3,12.5,3C13.3,3,14,2.3,14,1.5V0.2c1.2,0.4,2,1.5,2,2.8v10
	C16,14.7,14.7,16,13,16z M14,5H2v8c0,0.6,0.4,1,1,1h10c0.6,0,1-0.4,1-1V5z M10,10h2v2h-2V10z M10,7h2v2h-2V7z M7,10h2v2H7V10z M7,7
	h2v2H7V7z M4,10h2v2H4V10z M4,7h2v2H4V7z M12.5,2C12.2,2,12,1.8,12,1.5V0h1v1.5C13,1.8,12.8,2,12.5,2z M3.5,2C3.2,2,3,1.8,3,1.5V0h1
	v1.5C4,1.8,3.8,2,3.5,2z"/>
</svg>
