<?xml version="1.0" encoding="utf-8"?>
<!-- Generator: Adobe Illustrator 18.0.0, SVG Export Plug-In . SVG Version: 6.00 Build 0)  -->
<!DOCTYPE svg PUBLIC "-//W3C//DTD SVG 1.1//EN" "http://www.w3.org/Graphics/SVG/1.1/DTD/svg11.dtd">
<svg version="1.1" id="Слой_1" xmlns="http://www.w3.org/2000/svg" xmlns:xlink="http://www.w3.org/1999/xlink" x="0px" y="0px"
	 width="20px" height="17px" viewBox="0 0 20 17" enable-background="new 0 0 20 17" xml:space="preserve">
<g>
	<path fill="#2d2d2d" d="M18,0H6.3c-1.1,0-2,0.9-2,2v7.5c0,1.1,0.9,2,2,2h8.1c0,1.1,0,2-0.5,3.3c2.2-0.6,2.9-2.5,3.1-3.3h1
		c1.1,0,2-0.9,2-2V2C20,0.9,19.1,0,18,0z M17.4,8.4H6.9V6.5h10.5V8.4z M17.4,5H6.9V3.2h10.5V5z"/>
	<path fill="#2d2d2d" d="M3.3,10.5v-5H2c-1.1,0-2,0.9-2,2v4.5c0,1.1,0.9,2,2,2h0.2c0.3,0.9,1,2.4,3,2.9c-0.4-1.1-0.4-2-0.4-2.9h6
		c0.9,0,1.7-0.7,1.9-1.5H5.3C4.2,12.5,3.3,11.6,3.3,10.5z"/>
</g>
</svg>
