<?xml version="1.0" encoding="utf-8"?>
<!-- Generator: Adobe Illustrator 18.0.0, SVG Export Plug-In . SVG Version: 6.00 Build 0)  -->
<!DOCTYPE svg PUBLIC "-//W3C//DTD SVG 1.1//EN" "http://www.w3.org/Graphics/SVG/1.1/DTD/svg11.dtd">
<svg version="1.1" id="Слой_1" xmlns="http://www.w3.org/2000/svg" xmlns:xlink="http://www.w3.org/1999/xlink" x="0px" y="0px"
	 viewBox="0 0 37 37" enable-background="new 0 0 37 37" xml:space="preserve">
<path fill="#FFFFFF" d="M25.9,19.1c-0.7-0.8-1.6-1.2-2.8-1.4v-0.1c0.8-0.3,1.4-0.9,1.9-1.5c0.5-0.7,0.7-1.5,0.7-2.4
	c0-0.8-0.2-1.4-0.5-2s-0.9-1-1.5-1.4c-0.6-0.3-1.2-0.6-2-0.7c-0.7-0.1-1.7-0.1-3-0.1h-6.5v18h7.4c1.3,0,2.4-0.1,3.1-0.4
	c0.9-0.2,1.6-0.6,2.3-1.1c0.6-0.5,1-1,1.4-1.7s0.6-1.4,0.6-2.4C26.9,20.8,26.5,19.8,25.9,19.1z M20.7,15.7c-0.1,0.3-0.4,0.6-0.8,0.7
	c-0.4,0.2-0.7,0.3-0.9,0.3s-0.9,0-1.7,0h-0.6v-3.8H17c0.9,0,1.4,0,1.9,0c0.4,0,0.8,0.1,1,0.2c0.3,0.1,0.6,0.4,0.8,0.7
	s0.2,0.6,0.2,0.9C20.9,15,20.9,15.3,20.7,15.7z M21.9,23.1c-0.2,0.4-0.5,0.6-0.9,0.8c-0.5,0.2-0.9,0.3-1.4,0.3s-1.3,0-2.5,0h-0.3
	v-4.6h0.9c0.9,0,1.5,0,2,0s0.9,0.1,1.1,0.2c0.5,0.2,0.9,0.4,1,0.8c0.2,0.3,0.4,0.8,0.4,1.3C22.2,22.4,22.1,22.8,21.9,23.1z"/>
</svg>
