<?xml version="1.0" encoding="utf-8"?>
<!-- Generator: Adobe Illustrator 18.0.0, SVG Export Plug-In . SVG Version: 6.00 Build 0)  -->
<!DOCTYPE svg PUBLIC "-//W3C//DTD SVG 1.1//EN" "http://www.w3.org/Graphics/SVG/1.1/DTD/svg11.dtd">
<svg version="1.1" id="Слой_1" xmlns="http://www.w3.org/2000/svg" xmlns:xlink="http://www.w3.org/1999/xlink" x="0px" y="0px"
	 width="14px" height="14px" viewBox="0 0 14 14" enable-background="new 0 0 14 14" xml:space="preserve">
<path fill="#CFCFCF" d="M11.1,4.5L11.1,4.5L11.1,4.5 M8.5,3.7c-0.9,0-1.7,0.8-1.7,1.7c0,0.1,0,0.3,0,0.4C5.6,5.7,4.3,5,3.5,4
	C3.4,4.3,3.3,4.6,3.3,4.8c0,0.6,0.3,1.1,0.8,1.4C3.8,6.2,3.5,6.1,3.3,6c0,0,0,0,0,0c0,0.8,0.6,1.5,1.3,1.6c-0.1,0-0.3,0.1-0.4,0.1
	c-0.1,0-0.2,0-0.3,0c0.2,0.6,0.8,1.1,1.5,1.1c-0.6,0.4-1.3,0.7-2,0.7c-0.1,0-0.3,0-0.4,0c0.7,0.5,1.6,0.8,2.5,0.8
	c3.1,0,4.7-2.5,4.7-4.7c0-0.1,0-0.1,0-0.2c0.3-0.2,0.6-0.5,0.8-0.9c-0.3,0.1-0.6,0.2-1,0.3c0.4-0.2,0.6-0.5,0.7-0.9
	c-0.3,0.2-0.7,0.3-1,0.4C9.5,3.9,9,3.7,8.5,3.7"/>
</svg>
