<?xml version="1.0" encoding="utf-8"?>
<!-- Generator: Adobe Illustrator 18.0.0, SVG Export Plug-In . SVG Version: 6.00 Build 0)  -->
<!DOCTYPE svg PUBLIC "-//W3C//DTD SVG 1.1//EN" "http://www.w3.org/Graphics/SVG/1.1/DTD/svg11.dtd">
<svg version="1.1" id="Слой_1" xmlns="http://www.w3.org/2000/svg" xmlns:xlink="http://www.w3.org/1999/xlink" x="0px" y="0px"
	 viewBox="0 0 37 37" enable-background="new 0 0 37 37" xml:space="preserve">
<path fill="#FFFFFF" d="M11,8.4h14.9c1.4,0,2.6,1.1,2.6,2.6v15c0,1.4-1.1,2.6-2.6,2.6H11c-1.4,0-2.6-1.1-2.6-2.6V11
	C8.4,9.6,9.6,8.4,11,8.4L11,8.4z M23.1,10.7c-0.5,0-0.9,0.4-0.9,0.9v2.2c0,0.5,0.4,0.9,0.9,0.9h2.3c0.5,0,0.9-0.4,0.9-0.9v-2.2
	c0-0.5-0.4-0.9-0.9-0.9H23.1L23.1,10.7z M26.3,17h-1.8c0.2,0.6,0.3,1.1,0.3,1.7c0,3.3-2.8,6.1-6.3,6.1c-3.4,0-6.3-2.8-6.3-6.1
	c0-0.6,0.1-1.1,0.3-1.7h-1.8v8.5c0,0.5,0.4,0.8,0.8,0.8h13.9c0.5,0,0.8-0.4,0.8-0.8L26.3,17L26.3,17z M18.5,14.5c-2.2,0-4,1.7-4,3.9
	s1.8,3.9,4,3.9s4-1.7,4-3.9C22.6,16.3,20.8,14.5,18.5,14.5z"/>
</svg>
