<?xml version="1.0" encoding="utf-8"?>
<!-- Generator: Adobe Illustrator 18.0.0, SVG Export Plug-In . SVG Version: 6.00 Build 0)  -->
<!DOCTYPE svg PUBLIC "-//W3C//DTD SVG 1.1//EN" "http://www.w3.org/Graphics/SVG/1.1/DTD/svg11.dtd">
<svg version="1.1" id="Слой_1" xmlns="http://www.w3.org/2000/svg" xmlns:xlink="http://www.w3.org/1999/xlink" x="0px" y="0px"
	 width="21px" height="11px" viewBox="0 0 21 11" enable-background="new 0 0 21 11" xml:space="preserve">
<path fill="#BABABA" d="M10.5,0C4.7,0,0,5.5,0,5.5S4.7,11,10.5,11C16.3,11,21,5.5,21,5.5S16.3,0,10.5,0z M10.5,8.2
	C9,8.2,7.8,7,7.8,5.5C7.8,4,9,2.8,10.5,2.8c1.5,0,2.7,1.2,2.7,2.7C13.2,7,12,8.2,10.5,8.2z M1.8,5.5c0,0,2.4-2.5,5.8-3.6
	C6.5,2.7,5.8,4,5.8,5.5s0.7,2.8,1.8,3.6C4.2,8,1.8,5.5,1.8,5.5z M13.5,9.1c1.1-0.9,1.8-2.2,1.8-3.6s-0.7-2.8-1.8-3.6
	c3.4,1.1,5.8,3.6,5.8,3.6S16.8,8,13.5,9.1z"/>
</svg>
