<?xml version="1.0" encoding="utf-8"?>
<!-- Generator: Adobe Illustrator 18.0.0, SVG Export Plug-In . SVG Version: 6.00 Build 0)  -->
<!DOCTYPE svg PUBLIC "-//W3C//DTD SVG 1.1//EN" "http://www.w3.org/Graphics/SVG/1.1/DTD/svg11.dtd">
<svg version="1.1" id="Слой_1" xmlns="http://www.w3.org/2000/svg" xmlns:xlink="http://www.w3.org/1999/xlink" x="0px" y="0px"
	 viewBox="0 0 12 13" enable-background="new 0 0 12 13" xml:space="preserve">
<g>
	<g>
		<path fill="#262A33" d="M6,4.8c1.3,0,2.3-1.1,2.3-2.4C8.4,1.1,7.3,0,6,0C4.7,0,3.7,1.1,3.7,2.4C3.7,3.7,4.7,4.8,6,4.8z M8.7,5.3
			H3.4c0,0-1.9,0-1.9,1.8c0,1.9,0,4.5,0,4.5s0.1,0.7,0.9,0.7c0.8,0,0.9-0.7,0.9-0.7v-4h0.3V13h4.9V7.6h0.3v4c0,0,0.1,0.7,0.9,0.7
			c0.8,0,0.9-0.7,0.9-0.7s0-2.6,0-4.5C10.5,5.3,8.7,5.3,8.7,5.3z"/>
	</g>
</g>
</svg>
