<?xml version="1.0" encoding="utf-8"?>
<!-- Generator: Adobe Illustrator 18.0.0, SVG Export Plug-In . SVG Version: 6.00 Build 0)  -->
<!DOCTYPE svg PUBLIC "-//W3C//DTD SVG 1.1//EN" "http://www.w3.org/Graphics/SVG/1.1/DTD/svg11.dtd">
<svg version="1.1" id="Слой_1" xmlns="http://www.w3.org/2000/svg" xmlns:xlink="http://www.w3.org/1999/xlink" x="0px" y="0px"
	 viewBox="0 0 72 72" enable-background="new 0 0 72 72" xml:space="preserve">
<g>
	<g>
		<path fill="#FFFFFF" d="M32.6,43.7c-3.6,0-6.5,1.4-6.5,3.1c0,1.7,2.9,3.1,6.5,3.1c3.6,0,6.5-1.4,6.5-3.1
			C39.1,45.1,36.2,43.7,32.6,43.7z M32.6,52c-3.6,0-6.5-1.4-6.5-3.1v2c0,1.7,2.9,3.1,6.5,3.1c3.6,0,6.5-1.4,6.5-3.1v-2
			C39.1,50.6,36.2,52,32.6,52z M56.5,19.7L53,18l-4.8,9.6c-1-0.3-2,0.1-2.5,1l-3.5,7.2H20.3c-2.7,0-4.8,2.2-4.8,4.8
			c0,2.7,2.2,4.8,4.8,4.8h4.9c0,0,0,0,0,0c0-1.9,3.3-3.5,7.4-3.5s7.4,1.6,7.4,3.5c0,0,0,0,0,0h2.4c1.9,0,3.5-1.1,4.3-2.7
			c0.1-0.1,0.1-0.2,0.2-0.3l5.3-10.8c0.4-0.8,0.2-1.8-0.5-2.4L56.5,19.7z"/>
	</g>
</g>
</svg>
