<?xml version="1.0" encoding="utf-8"?>
<!-- Generator: Adobe Illustrator 18.0.0, SVG Export Plug-In . SVG Version: 6.00 Build 0)  -->
<!DOCTYPE svg PUBLIC "-//W3C//DTD SVG 1.1//EN" "http://www.w3.org/Graphics/SVG/1.1/DTD/svg11.dtd">
<svg version="1.1" id="Слой_1" xmlns="http://www.w3.org/2000/svg" xmlns:xlink="http://www.w3.org/1999/xlink" x="0px" y="0px"
	 viewBox="0 0 155 56" enable-background="new 0 0 155 56" xml:space="preserve">
<g>
	<path fill="#3399FF" d="M45.7,22.6c-9.2,0-16.7,7.5-16.7,16.7C29,48.5,36.5,56,45.7,56c9.2,0,16.7-7.5,16.7-16.7
		C62.4,30.1,54.9,22.6,45.7,22.6z"/>
	<path fill="#FFFFFF" d="M45.3,38.3c0.3,0,0.6,0.1,0.8,0.3c0.2,0.2,0.3,0.5,0.3,0.8c0,0.3-0.1,0.6-0.3,0.8c-0.2,0.2-0.5,0.3-0.8,0.3
		c-0.3,0-0.6-0.1-0.8-0.3c-0.2-0.2-0.3-0.5-0.3-0.8c0-0.3,0.1-0.6,0.3-0.8C44.7,38.4,44.9,38.3,45.3,38.3z"/>
	<path fill="#FFFFFF" d="M35,29.3c0,0,0.1-0.1,0.4-0.3c0.3-0.2,0.6-0.6,1.1-0.9c0.3-0.2,0.5-0.4,0.8-0.6c0.3-0.2,0.7-0.4,1-0.6
		c0.4-0.2,0.8-0.4,1.2-0.6c0.4-0.2,0.9-0.3,1.4-0.5c0.5-0.1,1.1-0.3,1.6-0.4c0.6-0.1,1.2-0.2,1.8-0.2c1.2-0.1,2.5,0,3.9,0.3
		c1.3,0.3,2.6,0.7,3.9,1.4c1.3,0.7,2.4,1.5,3.5,2.5c1,1,1.9,2.2,2.6,3.4c0.7,1.2,1.2,2.5,1.5,3.9c0.3,1.3,0.4,2.6,0.3,3.9
		c0,0.6-0.1,1.2-0.2,1.8c-0.1,0.6-0.2,1.1-0.4,1.6c-0.2,0.5-0.3,1-0.5,1.5c-0.2,0.4-0.4,0.9-0.6,1.3c-0.2,0.4-0.4,0.7-0.6,1.1
		c-0.2,0.3-0.4,0.6-0.6,0.8c-0.4,0.5-0.7,0.9-0.9,1.1c-0.2,0.3-0.3,0.4-0.3,0.4l-0.5-0.5c0,0,0.1-0.1,0.3-0.4
		c0.2-0.2,0.6-0.6,0.9-1.1c0.2-0.2,0.4-0.5,0.6-0.8c0.2-0.3,0.4-0.6,0.6-1c0.2-0.4,0.4-0.8,0.6-1.2c0.2-0.4,0.3-0.9,0.5-1.4
		c0.1-0.5,0.3-1,0.4-1.6c0.1-0.6,0.2-1.1,0.2-1.7c0.1-1.2,0-2.4-0.2-3.7c-0.2-1.3-0.7-2.5-1.3-3.8c-0.6-1.2-1.5-2.3-2.5-3.3
		c-1-1-2.1-1.8-3.3-2.5c-1.2-0.6-2.5-1.1-3.8-1.4c-1.3-0.3-2.6-0.4-3.8-0.3c-0.6,0-1.2,0.1-1.8,0.2c-0.6,0.1-1.1,0.2-1.6,0.4
		c-0.5,0.2-1,0.3-1.4,0.5c-0.4,0.2-0.9,0.4-1.2,0.6c-0.4,0.2-0.7,0.4-1,0.6c-0.3,0.2-0.6,0.4-0.8,0.6c-0.5,0.3-0.8,0.7-1.1,0.9
		C35.1,29.2,35,29.3,35,29.3z"/>
	<path fill="#FFFFFF" d="M37.2,31.5c0,0,0.1-0.1,0.3-0.3c0.2-0.2,0.5-0.5,0.9-0.7c0.2-0.1,0.4-0.3,0.6-0.5c0.3-0.2,0.5-0.3,0.8-0.5
		c0.3-0.2,0.6-0.3,1-0.5c0.3-0.2,0.7-0.3,1.1-0.4c0.8-0.2,1.7-0.4,2.7-0.5c1-0.1,2,0,3,0.2c1,0.2,2.1,0.6,3.1,1.1
		c1,0.5,1.9,1.2,2.7,2c0.8,0.8,1.5,1.7,2,2.7c0.5,1,0.9,2,1.2,3c0.2,1,0.3,2.1,0.3,3c0,1-0.2,1.9-0.4,2.7c-0.1,0.4-0.3,0.8-0.4,1.2
		c-0.2,0.4-0.3,0.7-0.5,1c-0.2,0.3-0.3,0.6-0.5,0.8c-0.2,0.2-0.3,0.5-0.5,0.7c-0.3,0.4-0.6,0.7-0.7,0.9c-0.2,0.2-0.3,0.3-0.3,0.3
		L53,47.1c0,0,0.1-0.1,0.3-0.3c0.2-0.2,0.4-0.4,0.7-0.8c0.1-0.2,0.3-0.4,0.5-0.6c0.1-0.2,0.3-0.5,0.5-0.8c0.2-0.3,0.3-0.6,0.5-0.9
		c0.2-0.3,0.3-0.7,0.4-1.1c0.2-0.8,0.4-1.6,0.5-2.6c0.1-0.9,0-1.9-0.2-2.9c-0.2-1-0.6-2-1-2.9c-0.5-0.9-1.2-1.8-1.9-2.6
		c-0.8-0.8-1.7-1.4-2.6-2c-1-0.5-2-0.9-3-1.1c-1-0.2-2-0.3-3-0.2c-1,0-1.8,0.2-2.6,0.4c-0.4,0.1-0.8,0.2-1.1,0.4
		c-0.3,0.2-0.7,0.3-1,0.5c-0.3,0.2-0.6,0.3-0.8,0.5c-0.2,0.2-0.5,0.3-0.7,0.5c-0.4,0.3-0.7,0.6-0.9,0.7
		C37.3,31.4,37.2,31.5,37.2,31.5z"/>
	<path fill="#FFFFFF" d="M39.5,33.7c0,0,0.1-0.1,0.2-0.2c0.1-0.1,0.3-0.3,0.6-0.5c0.1-0.1,0.3-0.2,0.5-0.3c0.2-0.1,0.4-0.2,0.6-0.4
		c0.4-0.2,0.9-0.5,1.5-0.7c0.6-0.2,1.2-0.3,1.9-0.4c0.7-0.1,1.4,0,2.2,0.1c0.8,0.1,1.5,0.4,2.2,0.8c0.7,0.4,1.4,0.9,2,1.4
		c0.6,0.6,1.1,1.2,1.5,1.9c0.4,0.7,0.7,1.5,0.8,2.2c0.2,0.8,0.2,1.5,0.2,2.2c0,0.7-0.2,1.4-0.3,2c-0.2,0.6-0.4,1.1-0.6,1.6
		c-0.1,0.2-0.2,0.4-0.4,0.6c-0.1,0.2-0.2,0.3-0.4,0.5c-0.2,0.3-0.4,0.5-0.5,0.7c-0.1,0.1-0.2,0.2-0.2,0.2l-0.5-0.5
		c0,0,0.1-0.1,0.2-0.2c0.1-0.1,0.3-0.3,0.5-0.6c0.1-0.1,0.2-0.3,0.3-0.4c0.1-0.2,0.2-0.4,0.3-0.6c0.2-0.4,0.4-0.9,0.6-1.4
		c0.2-0.6,0.3-1.2,0.3-1.8c0.1-0.7,0-1.4-0.1-2.1c-0.1-0.7-0.4-1.4-0.7-2.1c-0.4-0.7-0.8-1.3-1.4-1.9c-0.6-0.5-1.2-1-1.9-1.4
		c-0.7-0.4-1.4-0.6-2.1-0.8c-0.7-0.1-1.4-0.2-2.1-0.2c-0.7,0-1.3,0.1-1.9,0.3c-0.6,0.2-1.1,0.4-1.5,0.6c-0.2,0.1-0.4,0.2-0.6,0.3
		c-0.2,0.1-0.3,0.2-0.5,0.3c-0.3,0.2-0.5,0.4-0.6,0.5C39.5,33.6,39.5,33.7,39.5,33.7z"/>
	<path fill="#FFFFFF" d="M56.4,51L45.1,39.8l0.6-0.6l11.3,11.2L56.4,51z"/>
	<path fill="#3399FF" d="M13.6,3.6C12.9,3.2,12.1,3,11.2,3C8.7,3,7.4,4.6,7.4,7.8v3.5h5.3v3.1H7.4v19.4H3.8V14.3H0v-3.1h3.8V7.6
		c0-2.4,0.7-4.2,2-5.6C7.2,0.7,8.9,0,11,0c1.1,0,2,0.1,2.6,0.4V3.6z"/>
	<path fill="#3399FF" d="M18.4,5.6c-0.6,0-1.2-0.2-1.6-0.7c-0.5-0.4-0.7-1-0.7-1.7c0-0.7,0.2-1.2,0.7-1.7c0.5-0.4,1-0.7,1.6-0.7
		c0.7,0,1.2,0.2,1.7,0.7c0.5,0.4,0.7,1,0.7,1.7c0,0.6-0.2,1.2-0.7,1.6C19.6,5.3,19,5.6,18.4,5.6z M20.1,33.7h-3.6V11.3h3.6V33.7z"/>
	<path fill="#3399FF" d="M86.6,33.7H83v-3.5H83c-1.6,2.7-3.9,4-6.9,4c-2.2,0-4-0.6-5.3-1.8c-1.3-1.2-1.9-2.8-1.9-4.7
		c0-4.2,2.5-6.6,7.4-7.3l6.7-0.9c0-3.8-1.5-5.7-4.6-5.7c-2.7,0-5.1,0.9-7.3,2.8v-3.7c2.2-1.4,4.8-2.1,7.6-2.1c5.3,0,7.9,2.8,7.9,8.4
		V33.7z M83,22.3l-5.4,0.7c-1.7,0.2-2.9,0.6-3.8,1.2c-0.8,0.6-1.3,1.6-1.3,3.1c0,1.1,0.4,2,1.2,2.7c0.8,0.7,1.8,1,3.1,1
		c1.8,0,3.3-0.6,4.4-1.9c1.2-1.2,1.7-2.8,1.7-4.7V22.3z"/>
	<path fill="#3399FF" d="M112.6,33.7H109v-3.8h-0.1c-1.7,2.9-4.2,4.3-7.7,4.3c-2.8,0-5.1-1-6.8-3c-1.7-2-2.5-4.7-2.5-8.2
		c0-3.7,0.9-6.7,2.8-8.9c1.9-2.2,4.4-3.4,7.5-3.4c3.1,0,5.3,1.2,6.7,3.6h0.1V0.5h3.6V33.7z M109,23.5v-3.3c0-1.8-0.6-3.3-1.8-4.6
		c-1.2-1.3-2.7-1.9-4.6-1.9c-2.2,0-3.9,0.8-5.2,2.4c-1.3,1.6-1.9,3.8-1.9,6.7c0,2.6,0.6,4.6,1.8,6.1c1.2,1.5,2.8,2.2,4.9,2.2
		c2,0,3.6-0.7,4.9-2.2C108.4,27.6,109,25.7,109,23.5z"/>
	<path fill="#3399FF" d="M136,33.7h-3.6v-3.5h-0.1c-1.6,2.7-3.9,4-6.9,4c-2.2,0-4-0.6-5.3-1.8c-1.3-1.2-1.9-2.8-1.9-4.7
		c0-4.2,2.5-6.6,7.4-7.3l6.7-0.9c0-3.8-1.5-5.7-4.6-5.7c-2.7,0-5.1,0.9-7.3,2.8v-3.7c2.2-1.4,4.8-2.1,7.6-2.1c5.3,0,7.9,2.8,7.9,8.4
		V33.7z M132.4,22.3l-5.4,0.7c-1.7,0.2-2.9,0.6-3.8,1.2c-0.8,0.6-1.3,1.6-1.3,3.1c0,1.1,0.4,2,1.2,2.7c0.8,0.7,1.8,1,3.1,1
		c1.8,0,3.3-0.6,4.4-1.9c1.2-1.2,1.7-2.8,1.7-4.7V22.3z"/>
	<path fill="#3399FF" d="M154.4,14.9c-0.6-0.5-1.5-0.7-2.7-0.7c-1.5,0-2.8,0.7-3.8,2.2c-1,1.4-1.5,3.4-1.5,5.9v11.4h-3.6V11.3h3.6
		v4.6h0.1c0.5-1.6,1.3-2.8,2.3-3.7c1.1-0.9,2.2-1.3,3.5-1.3c0.9,0,1.7,0.1,2.1,0.3V14.9z"/>
	<path fill="#3399FF" d="M155,41.2H67.4V38H155V41.2z"/>
	<path fill="#3399FF" d="M24.3,41.2H0.1V38h24.2V41.2z"/>
	<path fill="#3399FF" d="M58.6,20.9c0.2-1.9,0.6-3.4,1.5-4.6c1-1.4,2.3-2.2,3.8-2.2c1.2,0,2.1,0.2,2.7,0.7v-3.7
		c-0.5-0.2-1.2-0.3-2.1-0.3c-1.3,0-2.5,0.4-3.5,1.3c-1.1,0.9-1.8,2.1-2.3,3.7h-0.1v-4.6h-3.6V19C56.2,19.6,57.5,20.2,58.6,20.9z"/>
	<path fill="#3399FF" d="M28.6,26.7c1-1.4,2.3-2.7,3.6-3.9v-8.5h5.7v-3.1h-5.7V4.6l-3.6,1.2v5.5h-3.9v3.1h3.9V26.7z"/>
</g>
</svg>
