<?xml version="1.0" encoding="utf-8"?>
<!-- Generator: Adobe Illustrator 18.0.0, SVG Export Plug-In . SVG Version: 6.00 Build 0)  -->
<!DOCTYPE svg PUBLIC "-//W3C//DTD SVG 1.1//EN" "http://www.w3.org/Graphics/SVG/1.1/DTD/svg11.dtd">
<svg version="1.1" id="Слой_1" xmlns="http://www.w3.org/2000/svg" xmlns:xlink="http://www.w3.org/1999/xlink" x="0px" y="0px"
	 width="80px" height="58px" viewBox="0 0 80 58" enable-background="new 0 0 80 58" xml:space="preserve">
<g>
	<g>
		<path fill="#3399FF" d="M69.1,0H0v45.1h4.5V3.5h64.7V0z M76.7,42.1l-4,4l4,4V42.1z M67.3,51.3h1.5l-0.8-0.8L67.3,51.3z M63.5,46
			L54,36.6l4.6-4.6l9.5,9.4l8.6-8.5V6.3H7.5v45.1h50.6L63.5,46z M15.3,13.4h30.3V17H15.3V13.4z M15.3,26.8h53.6v3.5H15.3V26.8z
			 M45.5,43.9H15.3v-3.5h30.3V43.9z M80,36.7l-2.5-2.6L68,43.6l-9.4-9.5l-2.5,2.6l9.4,9.4l-9.4,9.4l2.5,2.5l9.4-9.4l9.5,9.4l2.5-2.5
			l-9.4-9.4L80,36.7z"/>
	</g>
</g>
</svg>
