<?xml version="1.0" encoding="utf-8"?>
<!-- Generator: Adobe Illustrator 18.0.0, SVG Export Plug-In . SVG Version: 6.00 Build 0)  -->
<!DOCTYPE svg PUBLIC "-//W3C//DTD SVG 1.1//EN" "http://www.w3.org/Graphics/SVG/1.1/DTD/svg11.dtd">
<svg version="1.1" id="Слой_1" xmlns="http://www.w3.org/2000/svg" xmlns:xlink="http://www.w3.org/1999/xlink" x="0px" y="0px"
	 width="20px" height="17px" viewBox="0 0 20 17" enable-background="new 0 0 20 17" xml:space="preserve">
<g>
	<g>
		<path fill="#FFFFFF" d="M2.9,0l11.4,0c1.6,0,2.9,1.3,2.9,2.9v3.8H20l-4,6.8l-4-6.8h2.7V2.9c0-0.2-0.2-0.4-0.4-0.4H2.9
			c-0.2,0-0.4,0.2-0.4,0.4v11.3c0,0.2,0.2,0.4,0.4,0.4h11.4c0.7,0,1.2,0.6,1.2,1.2c0,0.7-0.6,1.2-1.2,1.2H2.9C1.3,17,0,15.7,0,14.1
			L0,2.9C0,1.3,1.3,0,2.9,0z"/>
	</g>
</g>
</svg>
