<?xml version="1.0" encoding="utf-8"?>
<!-- Generator: Adobe Illustrator 18.0.0, SVG Export Plug-In . SVG Version: 6.00 Build 0)  -->
<!DOCTYPE svg PUBLIC "-//W3C//DTD SVG 1.1//EN" "http://www.w3.org/Graphics/SVG/1.1/DTD/svg11.dtd">
<svg version="1.1" id="Слой_1" xmlns="http://www.w3.org/2000/svg" xmlns:xlink="http://www.w3.org/1999/xlink" x="0px" y="0px"
	 width="20px" height="17px" viewBox="0 0 20 17" enable-background="new 0 0 20 17" xml:space="preserve">
<g>
	<g>
		<path fill="#FFFFFF" d="M17.1,0H5.7C4,0,2.7,1.3,2.7,2.9v3.8H0l4,6.8l4-6.8H5.2V2.9c0-0.2,0.2-0.4,0.4-0.4h11.4
			c0.2,0,0.4,0.2,0.4,0.4v11.3c0,0.2-0.2,0.4-0.4,0.4H5.7c-0.7,0-1.2,0.6-1.2,1.2C4.4,16.4,5,17,5.7,17h11.4c1.6,0,2.9-1.3,2.9-2.9
			V2.9C20,1.3,18.7,0,17.1,0z"/>
	</g>
</g>
</svg>
