<?xml version="1.0" encoding="utf-8"?>
<!-- Generator: Adobe Illustrator 18.0.0, SVG Export Plug-In . SVG Version: 6.00 Build 0)  -->
<!DOCTYPE svg PUBLIC "-//W3C//DTD SVG 1.1//EN" "http://www.w3.org/Graphics/SVG/1.1/DTD/svg11.dtd">
<svg version="1.1" id="Слой_1" xmlns="http://www.w3.org/2000/svg" xmlns:xlink="http://www.w3.org/1999/xlink" x="0px" y="0px"
	 width="38px" height="34px" viewBox="0 0 38 34" enable-background="new 0 0 38 34" xml:space="preserve">
<g>
	<g>
		<path fill="#FFFFFF" d="M35.2,4.6H28L27.3,2c-0.9-1.6-2-2-2.8-2H13.5c-1.6,0-2.3,1.3-2.7,1.9l0,0.1l-0.8,2.7H2.8
			C1.3,4.6,0,6,0,7.6v23.5C0,32.7,1.3,34,2.8,34h32.3c1.6,0,2.8-1.3,2.8-2.9V7.6C38,6,36.7,4.6,35.2,4.6z M36.4,31.1
			c0,0.7-0.6,1.3-1.2,1.3H2.8c-0.7,0-1.2-0.6-1.2-1.3V7.6c0-0.7,0.6-1.3,1.2-1.3h7.2c0.7,0,1.3-0.5,1.5-1.2l0.7-2.5
			c0.4-0.6,0.7-1,1.2-1h10.9c0.2,0,0.8,0,1.3,1l0.7,2.5c0.2,0.7,0.8,1.2,1.5,1.2h7.1c0.7,0,1.2,0.6,1.2,1.3V31.1z M19,10.1
			c-4.8,0-8.7,4-8.7,9c0,5,3.9,9,8.7,9c4.8,0,8.7-4,8.7-9C27.7,14.1,23.8,10.1,19,10.1z M19,26.4c-3.9,0-7.1-3.3-7.1-7.3
			c0-4,3.2-7.3,7.1-7.3c3.9,0,7.1,3.3,7.1,7.3C26.1,23.2,22.9,26.4,19,26.4z M8.3,8.7h-4c-0.4,0-0.8,0.4-0.8,0.8
			c0,0.5,0.4,0.8,0.8,0.8h4c0.4,0,0.8-0.4,0.8-0.8C9.1,9.1,8.7,8.7,8.3,8.7z"/>
	</g>
</g>
</svg>
