<?xml version="1.0" encoding="utf-8"?>
<!-- Generator: Adobe Illustrator 18.0.0, SVG Export Plug-In . SVG Version: 6.00 Build 0)  -->
<!DOCTYPE svg PUBLIC "-//W3C//DTD SVG 1.1//EN" "http://www.w3.org/Graphics/SVG/1.1/DTD/svg11.dtd">
<svg version="1.1" id="Слой_1" xmlns="http://www.w3.org/2000/svg" xmlns:xlink="http://www.w3.org/1999/xlink" x="0px" y="0px"
	 width="21.8px" height="21.7px" viewBox="0 0 21.8 21.7" enable-background="new 0 0 21.8 21.7" xml:space="preserve">
<path fill="#3399ff" d="M20.4,2.7h-2.7V1c0-0.6-0.5-1-1-1c-0.6,0-1,0.5-1,1v1.7H6.1V1c0-0.6-0.5-1-1-1c-0.6,0-1,0.5-1,1v1.7H1.4
	C0.6,2.7,0,3.3,0,4.1v16.3c0,0.7,0.6,1.4,1.4,1.4h19c0.8,0,1.4-0.6,1.4-1.4V4.1C21.8,3.3,21.1,2.7,20.4,2.7z M19.7,19.7H2V8.8h17.7
	V19.7z M19.7,6.8H2v-2h17.7V6.8z"/>
</svg>
