<?xml version="1.0" encoding="utf-8"?>
<!-- Generator: Adobe Illustrator 18.0.0, SVG Export Plug-In . SVG Version: 6.00 Build 0)  -->
<!DOCTYPE svg PUBLIC "-//W3C//DTD SVG 1.1//EN" "http://www.w3.org/Graphics/SVG/1.1/DTD/svg11.dtd">
<svg version="1.1" id="Слой_1" xmlns="http://www.w3.org/2000/svg" xmlns:xlink="http://www.w3.org/1999/xlink" x="0px" y="0px"
	 width="187px" height="17px" viewBox="0 0 187 17" enable-background="new 0 0 187 17" xml:space="preserve">
<path fill="#FFFFFF" d="M12.2,9.3c0.6-0.9,0.9-2.1,0.9-3.3c0-3.1-2.1-5.6-4.6-5.6C5.9,0.4,3.9,2.9,3.9,6c0,1.3,0.4,2.4,0.9,3.3
	c-2.4,1.1-4,3.3-4,5.8v0.5c0,0.6,0.5,1,1,1h13.4c0.6,0,1-0.5,1-1v-0.5C16.2,12.6,14.6,10.4,12.2,9.3z M8.5,1.9
	c1.7,0,3.1,1.9,3.1,4.1c0,2.2-1.4,4.1-3.1,4.1C6.8,10,5.4,8.2,5.4,6C5.4,3.8,6.8,1.9,8.5,1.9z M2.3,15.1c0-2,1.4-3.7,3.5-4.6
	c0.8,0.6,1.7,1,2.7,1s1.9-0.4,2.7-1c2.1,0.8,3.5,2.6,3.5,4.6H2.3z"/>
<g>
	<g>
		<path fill-rule="evenodd" clip-rule="evenodd" fill="#FFFFFF" d="M28.6,11.3h2.1c0.4,0,0.8-0.3,0.8-0.8c0-0.4-0.3-0.8-0.8-0.8
			h-2.1c-0.4,0-0.8,0.3-0.8,0.8C27.8,11,28.2,11.3,28.6,11.3z M33,2H18c-0.6,0-1,0.5-1,1V14c0,0.6,0.5,1,1,1H33c0.6,0,1-0.5,1-1V3
			C34,2.5,33.5,2,33,2z M32.5,13.4H18.5V8.7h13.9V13.4z M32.5,6.1H18.5V3.6h13.9V6.1z"/>
	</g>
</g>
<path fill="#FFFFFF" d="M35.3,1.9c-0.6,0-1,0.5-1,1v11.1c0,0.6,0.5,1,1,1h14.4c0.6,0,1-0.5,1-1V2.9c0-0.6-0.5-1-1-1H35.3z M49.2,3.4
	v0.4l-6.7,5.5l-6.7-5.5V3.4H49.2z M35.8,13.6V5.8l6,5C42,11,42.3,11,42.5,11c0.2,0,0.5-0.1,0.7-0.2l6-5v7.7H35.8z"/>
<path fill="#FFFFFF" d="M65.7,11.4c-1-0.8-1.7-2.9-1.7-5.3c0-1.8-1.3-3.4-3-4C60.9,1.5,60.2,1,59.5,1c-0.7,0-1.4,0.5-1.5,1.2
	c-1.8,0.6-3,2.1-3,4c0,2.4-0.7,4.5-1.7,5.3c-0.5,0.4-0.8,1.1-0.8,1.7c0,0.8,0.7,1.4,1.5,1.4h4c0,0.8,0.7,1.4,1.5,1.4
	c0.8,0,1.5-0.6,1.5-1.4h4c0.8,0,1.5-0.6,1.5-1.4C66.5,12.5,66.2,11.9,65.7,11.4z M54,13.2c0-0.3,0.1-0.5,0.3-0.7
	c1.3-1.1,2.2-3.5,2.2-6.4c0-1.6,1.3-2.8,3-2.8c1.7,0,3,1.3,3,2.8c0,2.8,0.8,5.3,2.2,6.4c0.2,0.2,0.3,0.4,0.3,0.7H54z"/>
<path fill-rule="evenodd" clip-rule="evenodd" fill="#FFFFFF" d="M83.7,13.6h-8.2l-2.6,2.5h-0.5c-0.6,0-1-0.5-1-1v-1.5h-2.1
	c-0.6,0-1-0.5-1-1V1.9c0-0.6,0.5-1,1-1h14.4c0.6,0,1,0.5,1,1v10.6C84.7,13.1,84.3,13.6,83.7,13.6z M83.2,2.4H69.8V12h3.1v1.9
	l1.9-1.9h8.4V2.4z"/>
<path fill="#FFFFFF" d="M97.5,4V2.5c0-0.6-0.4-1-1-1h-6c-0.6,0-1,0.4-1,1V4h-3c-0.6,0-1,0.4-1,1v9.5c0,0.6,0.4,1,1,1h14
	c0.6,0,1-0.4,1-1V5c0-0.6-0.4-1-1-1H97.5z M91,3h5v1h-5V3z M100,5.5v3h-5V8h-3v0.5h-5v-3H100z M87,14v-4h5v0.5h3V10h5v4H87z"/>
<path fill="#FFFFFF" d="M110.5,2.3l5.2,5.1v7.7h-2.6v-3.5c0-0.6-0.5-1-1-1H109c-0.6,0-1,0.5-1,1v3.5h-2.6V7.4L110.5,2.3 M111,0.6
	c-0.3-0.2-0.7-0.2-0.9,0l-5.9,5.8c-0.2,0.2-0.3,0.4-0.3,0.7v8.4c0,0.6,0.5,1,1,1h3.6c0.6,0,1-0.5,1-1V12h2.1v3.5c0,0.6,0.5,1,1,1
	h3.6c0.6,0,1-0.5,1-1V7.1c0-0.3-0.1-0.5-0.3-0.7L111,0.6z"/>
<path fill="#FFFFFF" d="M135,1h-3.4c-1.8,0-3.3,0.5-4.1,1.4c-0.8-0.8-2.3-1.4-4.1-1.4H120c-0.5,0-1,0.4-1,1v11.5c0,0.6,0.4,1,1,1
	h3.4c1.3,0,2.7,0.6,3.2,1.1c0.2,0.2,0.5,0.4,0.9,0.4h0.1c0.3,0,0.6-0.1,0.9-0.4c0.5-0.5,1.9-1.1,3.2-1.1h3.4c0.5,0,1-0.4,1-1V2
	C136,1.4,135.6,1,135,1z M123.4,13h-2.9V2.5h2.9c2.1,0,3.4,0.9,3.4,1.5v9.8C125.9,13.3,124.7,13,123.4,13z M134.5,13h-2.9
	c-1.3,0-2.5,0.3-3.4,0.8V4c0-0.6,1.3-1.5,3.4-1.5h2.9V13z"/>
<path fill="#FFFFFF" d="M151.5,2.5h-2V1.2c0-0.4-0.3-0.7-0.8-0.7c-0.4,0-0.8,0.3-0.8,0.7v1.2h-7V1.2c0-0.4-0.3-0.7-0.8-0.7
	c-0.4,0-0.8,0.3-0.8,0.7v1.2h-2c-0.6,0-1,0.4-1,1v12c0,0.6,0.4,1,1,1h14c0.6,0,1-0.4,1-1v-12C152.5,2.9,152.1,2.5,151.5,2.5z
	 M151,15h-13V7h13V15z M151,5.5h-13V4h13V5.5z"/>
<path fill-rule="evenodd" clip-rule="evenodd" fill="#FFFFFF" d="M168.7,9.5h-0.6c-0.2,1.1-0.6,2-1.2,2.9l0.5,0.5
	c0.2,0.2,0.3,0.5,0.3,0.7c0,0.3-0.1,0.5-0.3,0.7c-0.2,0.2-0.5,0.3-0.7,0.3c-0.3,0-0.5-0.1-0.7-0.3l-0.5-0.5c-0.8,0.6-1.8,1-2.9,1.2
	v0.6c0,0.6-0.5,1-1,1c-0.6,0-1-0.5-1-1V15c-1.1-0.2-2.1-0.6-2.9-1.2l-0.5,0.5c-0.2,0.2-0.5,0.3-0.7,0.3c-0.3,0-0.5-0.1-0.7-0.3
	c-0.2-0.2-0.3-0.5-0.3-0.7c0-0.3,0.1-0.5,0.3-0.7l0.5-0.5c-0.6-0.8-1-1.8-1.2-2.9h-0.6c-0.6,0-1-0.5-1-1c0-0.6,0.5-1,1-1h0.6
	c0.2-1.1,0.6-2,1.2-2.9l-0.5-0.5c-0.2-0.2-0.3-0.5-0.3-0.7c0-0.3,0.1-0.5,0.3-0.7c0.2-0.2,0.5-0.3,0.7-0.3c0.3,0,0.5,0.1,0.7,0.3
	l0.5,0.5c0.8-0.6,1.8-1,2.9-1.2V1.4c0-0.6,0.5-1,1-1c0.6,0,1,0.5,1,1V2c1.1,0.2,2.1,0.6,2.9,1.2l0.5-0.5c0.2-0.2,0.5-0.3,0.7-0.3
	c0.3,0,0.5,0.1,0.7,0.3c0.2,0.2,0.3,0.5,0.3,0.7c0,0.3-0.1,0.5-0.3,0.7l-0.5,0.5c0.6,0.8,1,1.8,1.2,2.9h0.6c0.6,0,1,0.5,1,1
	C169.7,9.1,169.3,9.5,168.7,9.5z M161.5,3.4c-2.8,0-5.2,2.3-5.2,5.1c0,2.8,2.3,5.1,5.2,5.1s5.2-2.3,5.2-5.1
	C166.7,5.7,164.3,3.4,161.5,3.4z M161.5,11.5c-1.7,0-3.1-1.4-3.1-3c0-1.7,1.4-3,3.1-3c1.7,0,3.1,1.4,3.1,3
	C164.6,10.2,163.2,11.5,161.5,11.5z M161.5,7c-0.9,0-1.5,0.7-1.5,1.5c0,0.8,0.7,1.5,1.5,1.5c0.9,0,1.5-0.7,1.5-1.5
	C163,7.7,162.4,7,161.5,7z"/>
<path fill-rule="evenodd" clip-rule="evenodd" fill="#FFFFFF" d="M185.8,16.5h-14.5c-0.4,0-0.8-0.3-0.8-0.8c0-0.4,0.3-0.8,0.8-0.8
	h14.5c0.4,0,0.8,0.3,0.8,0.8C186.5,16.2,186.2,16.5,185.8,16.5z M185,13.5h-2c-0.6,0-1-0.4-1-1v-8c0-0.6,0.4-1,1-1h2
	c0.6,0,1,0.4,1,1v8C186,13.1,185.6,13.5,185,13.5z M184.5,5h-1v7h1V5z M179.5,13.5h-2c-0.6,0-1-0.4-1-1v-11c0-0.6,0.4-1,1-1h2
	c0.6,0,1,0.4,1,1v11C180.5,13.1,180.1,13.5,179.5,13.5z M179,2h-1v10h1V2z M174,13.5h-2c-0.6,0-1-0.4-1-1v-5c0-0.6,0.4-1,1-1h2
	c0.6,0,1,0.4,1,1v5C175,13.1,174.6,13.5,174,13.5z M173.5,8h-1v4h1V8z"/>
</svg>
