<?xml version="1.0" encoding="utf-8"?>
<!-- Generator: Adobe Illustrator 18.0.0, SVG Export Plug-In . SVG Version: 6.00 Build 0)  -->
<!DOCTYPE svg PUBLIC "-//W3C//DTD SVG 1.1//EN" "http://www.w3.org/Graphics/SVG/1.1/DTD/svg11.dtd">
<svg version="1.1" id="Слой_1" xmlns="http://www.w3.org/2000/svg" xmlns:xlink="http://www.w3.org/1999/xlink" x="0px" y="0px"
	 width="22.4px" height="17.9px" viewBox="0 0 22.4 17.9" enable-background="new 0 0 22.4 17.9" xml:space="preserve">
<path fill="#3EB4C5" d="M1.4,0C0.6,0,0,0.6,0,1.4v15.1c0,0.8,0.6,1.4,1.4,1.4H21c0.8,0,1.4-0.6,1.4-1.4V1.4C22.4,0.6,21.8,0,21,0
	H1.4z M20.3,2.1v0.5l-9.1,7.5L2.1,2.6V2.1H20.3z M2.1,15.8V5.3l8.2,6.8c0.3,0.2,0.6,0.3,0.9,0.3c0.3,0,0.6-0.1,0.9-0.3l8.2-6.8v10.5
	H2.1z"/>
</svg>
