<?xml version="1.0" encoding="utf-8"?>
<!-- Generator: Adobe Illustrator 18.0.0, SVG Export Plug-In . SVG Version: 6.00 Build 0)  -->
<!DOCTYPE svg PUBLIC "-//W3C//DTD SVG 1.1//EN" "http://www.w3.org/Graphics/SVG/1.1/DTD/svg11.dtd">
<svg version="1.1" id="Слой_1" xmlns="http://www.w3.org/2000/svg" xmlns:xlink="http://www.w3.org/1999/xlink" x="0px" y="0px"
	 width="16px" height="14px" viewBox="0 0 16 14" enable-background="new 0 0 16 14" xml:space="preserve">
<path fill="#959595" d="M12,2.5V1c0-0.6-0.4-1-1-1H5C4.4,0,4,0.4,4,1v1.5H1c-0.6,0-1,0.4-1,1V13c0,0.6,0.4,1,1,1h14c0.6,0,1-0.4,1-1
	V3.5c0-0.6-0.4-1-1-1H12z M5.5,1.5h5v1h-5V1.5z M14.5,4v3h-5V6.5h-3V7h-5V4H14.5z M1.5,12.5v-4h5V9h3V8.5h5v4H1.5z"/>
</svg>
