<?xml version="1.0" encoding="utf-8"?>
<!-- Generator: Adobe Illustrator 18.0.0, SVG Export Plug-In . SVG Version: 6.00 Build 0)  -->
<!DOCTYPE svg PUBLIC "-//W3C//DTD SVG 1.1//EN" "http://www.w3.org/Graphics/SVG/1.1/DTD/svg11.dtd">
<svg version="1.1" id="Слой_1" xmlns="http://www.w3.org/2000/svg" xmlns:xlink="http://www.w3.org/1999/xlink" x="0px" y="0px"
	 width="16px" height="16px" viewBox="0 0 16 16" enable-background="new 0 0 16 16" xml:space="preserve">
<path fill="#959595" d="M15,2h-2V0.7C13,0.3,12.7,0,12.2,0c-0.4,0-0.8,0.3-0.8,0.7V2h-7V0.7C4.5,0.3,4.2,0,3.7,0C3.3,0,3,0.3,3,0.7
	V2H1C0.4,2,0,2.4,0,3v12c0,0.6,0.4,1,1,1h14c0.6,0,1-0.4,1-1V3C16,2.4,15.6,2,15,2z M14.5,14.5h-13v-8h13V14.5z M14.5,5h-13V3.5h13
	V5z"/>
</svg>
