<?xml version="1.0" encoding="utf-8"?>
<!-- Generator: Adobe Illustrator 18.0.0, SVG Export Plug-In . SVG Version: 6.00 Build 0)  -->
<!DOCTYPE svg PUBLIC "-//W3C//DTD SVG 1.1//EN" "http://www.w3.org/Graphics/SVG/1.1/DTD/svg11.dtd">
<svg version="1.1" id="Слой_1" xmlns="http://www.w3.org/2000/svg" xmlns:xlink="http://www.w3.org/1999/xlink" x="0px" y="0px"
	 width="16.5px" height="16.2px" viewBox="0 0 16.5 16.2" enable-background="new 0 0 16.5 16.2" xml:space="preserve">
<path fill-rule="evenodd" clip-rule="evenodd" fill="#363636" d="M15.5,9.1h-0.6c-0.2,1.1-0.6,2-1.2,2.9l0.5,0.5
	c0.2,0.2,0.3,0.5,0.3,0.7c0,0.3-0.1,0.5-0.3,0.7c-0.2,0.2-0.5,0.3-0.7,0.3c-0.3,0-0.5-0.1-0.7-0.3l-0.5-0.5c-0.8,0.6-1.8,1-2.9,1.2
	v0.6c0,0.6-0.5,1-1,1c-0.6,0-1-0.5-1-1v-0.6c-1.1-0.2-2.1-0.6-2.9-1.2l-0.5,0.5c-0.2,0.2-0.5,0.3-0.7,0.3c-0.3,0-0.5-0.1-0.7-0.3
	c-0.2-0.2-0.3-0.5-0.3-0.7c0-0.3,0.1-0.5,0.3-0.7L2.8,12c-0.6-0.8-1-1.8-1.2-2.9H1c-0.6,0-1-0.5-1-1c0-0.6,0.5-1,1-1h0.6
	c0.2-1.1,0.6-2,1.2-2.9L2.4,3.8C2.2,3.6,2.1,3.3,2.1,3c0-0.3,0.1-0.5,0.3-0.7C2.6,2.1,2.8,2,3.1,2c0.3,0,0.5,0.1,0.7,0.3l0.5,0.5
	c0.8-0.6,1.8-1,2.9-1.2V1c0-0.6,0.5-1,1-1c0.6,0,1,0.5,1,1v0.6c1.1,0.2,2.1,0.6,2.9,1.2l0.5-0.5C12.9,2.1,13.1,2,13.4,2
	c0.3,0,0.5,0.1,0.7,0.3c0.2,0.2,0.3,0.5,0.3,0.7c0,0.3-0.1,0.5-0.3,0.7l-0.5,0.5c0.6,0.8,1,1.8,1.2,2.9h0.6c0.6,0,1,0.5,1,1
	C16.5,8.7,16,9.1,15.5,9.1z M8.2,3C5.4,3,3.1,5.3,3.1,8.1c0,2.8,2.3,5.1,5.2,5.1c2.8,0,5.2-2.3,5.2-5.1C13.4,5.3,11.1,3,8.2,3z
	 M8.2,11.1c-1.7,0-3.1-1.4-3.1-3c0-1.7,1.4-3,3.1-3c1.7,0,3.1,1.4,3.1,3C11.3,9.8,10,11.1,8.2,11.1z M8.2,6.6
	c-0.9,0-1.5,0.7-1.5,1.5c0,0.8,0.7,1.5,1.5,1.5c0.9,0,1.5-0.7,1.5-1.5C9.8,7.3,9.1,6.6,8.2,6.6z"/>
</svg>
