<?xml version="1.0" encoding="utf-8"?>
<!-- Generator: Adobe Illustrator 18.0.0, SVG Export Plug-In . SVG Version: 6.00 Build 0)  -->
<!DOCTYPE svg PUBLIC "-//W3C//DTD SVG 1.1//EN" "http://www.w3.org/Graphics/SVG/1.1/DTD/svg11.dtd">
<svg version="1.1" id="Слой_1" xmlns="http://www.w3.org/2000/svg" xmlns:xlink="http://www.w3.org/1999/xlink" x="0px" y="0px"
	 width="16.5px" height="13.2px" viewBox="0 0 16.5 13.2" enable-background="new 0 0 16.5 13.2" xml:space="preserve">
<path fill="#383838" d="M1,0C0.5,0,0,0.5,0,1v11.1c0,0.6,0.5,1,1,1h14.4c0.6,0,1-0.5,1-1V1c0-0.6-0.5-1-1-1H1z M14.9,1.5v0.4
	L8.2,7.4L1.5,1.9V1.5H14.9z M1.5,11.6V3.9l6,5C7.8,9,8,9.1,8.2,9.1c0.2,0,0.5-0.1,0.7-0.2l6-5v7.7H1.5z"/>
</svg>
