<?xml version="1.0" encoding="utf-8"?>
<!-- Generator: Adobe Illustrator 18.0.0, SVG Export Plug-In . SVG Version: 6.00 Build 0)  -->
<!DOCTYPE svg PUBLIC "-//W3C//DTD SVG 1.1//EN" "http://www.w3.org/Graphics/SVG/1.1/DTD/svg11.dtd">
<svg version="1.1" id="Слой_1" xmlns="http://www.w3.org/2000/svg" xmlns:xlink="http://www.w3.org/1999/xlink" x="0px" y="0px"
	 width="14px" height="15px" viewBox="0 0 14 15" enable-background="new 0 0 14 15" xml:space="preserve">
<path fill="#373737" d="M13.2,10.4c-1-0.8-1.7-2.9-1.7-5.3c0-1.8-1.3-3.4-3-4C8.4,0.5,7.7,0,7,0C6.3,0,5.6,0.5,5.5,1.2
	c-1.8,0.6-3,2.1-3,4c0,2.4-0.7,4.5-1.7,5.3C0.3,10.9,0,11.5,0,12.2c0,0.8,0.7,1.4,1.5,1.4h4C5.5,14.4,6.2,15,7,15
	c0.8,0,1.5-0.6,1.5-1.4h4c0.8,0,1.5-0.6,1.5-1.4C14,11.5,13.7,10.9,13.2,10.4z M1.5,12.2c0-0.3,0.1-0.5,0.3-0.7C3.2,10.4,4,8,4,5.2
	c0-1.6,1.3-2.8,3-2.8s3,1.3,3,2.8c0,2.8,0.8,5.3,2.2,6.4c0.2,0.2,0.3,0.4,0.3,0.7H1.5z"/>
</svg>
