<?xml version="1.0" encoding="utf-8"?>
<!-- Generator: Adobe Illustrator 18.0.0, SVG Export Plug-In . SVG Version: 6.00 Build 0)  -->
<!DOCTYPE svg PUBLIC "-//W3C//DTD SVG 1.1//EN" "http://www.w3.org/Graphics/SVG/1.1/DTD/svg11.dtd">
<svg version="1.1" id="Слой_1" xmlns="http://www.w3.org/2000/svg" xmlns:xlink="http://www.w3.org/1999/xlink" x="0px" y="0px"
	 width="26px" height="16px" viewBox="0 0 26 16" enable-background="new 0 0 26 16" xml:space="preserve">
<path fill="#3EB4C5" d="M13,16C7.9,16,2.9,13,0.3,8.5L0,8l0.3-0.5C2.9,2.9,7.9,0,13,0c5.1,0,10.1,2.9,12.7,7.5L26,8l-0.3,0.5
	C23.1,13,18.1,16,13,16z M2.3,8c2.3,3.7,6.4,6,10.6,6c4.2,0,8.3-2.3,10.6-6C21.3,4.3,17.2,2,13,2C8.8,2,4.7,4.3,2.3,8z M13,13.7
	c-3.2,0-5.8-2.5-5.8-5.7c0-3.1,2.6-5.7,5.8-5.7c3.2,0,5.8,2.5,5.8,5.7C18.8,11.1,16.2,13.7,13,13.7z M13,4.3C10.9,4.3,9.2,6,9.2,8
	c0,2,1.7,3.7,3.8,3.7c2.1,0,3.8-1.6,3.8-3.7C16.8,6,15.1,4.3,13,4.3z"/>
</svg>
