<?xml version="1.0" encoding="utf-8"?>
<!-- Generator: Adobe Illustrator 18.0.0, SVG Export Plug-In . SVG Version: 6.00 Build 0)  -->
<!DOCTYPE svg PUBLIC "-//W3C//DTD SVG 1.1//EN" "http://www.w3.org/Graphics/SVG/1.1/DTD/svg11.dtd">
<svg version="1.1" id="Слой_1" xmlns="http://www.w3.org/2000/svg" xmlns:xlink="http://www.w3.org/1999/xlink" x="0px" y="0px"
	 width="5px" height="10.8px" viewBox="0 0 5 10.8" enable-background="new 0 0 5 10.8" xml:space="preserve">
<path fill="#959595" d="M2.7,7.8C2.6,7.6,2.6,7.5,2.5,7.3C2.5,7.1,2.4,6.9,2.4,6.7c0-0.3,0.1-0.5,0.2-0.7c0.1-0.2,0.3-0.4,0.5-0.6
	c0.2-0.2,0.4-0.4,0.6-0.6C4,4.5,4.2,4.3,4.4,4.1c0.2-0.2,0.4-0.5,0.5-0.8C5,3,5,2.7,5,2.3c0-0.4-0.1-0.7-0.2-1
	C4.7,1,4.5,0.8,4.2,0.6C4,0.4,3.7,0.2,3.4,0.1C3,0,2.7,0,2.3,0C1.5,0,0.7,0.2,0,0.7V2c0.6-0.6,1.3-1,2.1-1c0.2,0,0.4,0,0.7,0.1
	C3,1.2,3.2,1.3,3.3,1.4c0.2,0.1,0.3,0.3,0.4,0.5C3.8,2,3.8,2.2,3.8,2.5c0,0.3-0.1,0.5-0.2,0.8C3.5,3.4,3.4,3.7,3.2,3.9
	C3,4.1,2.8,4.3,2.6,4.5C2.4,4.7,2.2,4.9,2,5.1C1.8,5.3,1.6,5.6,1.5,5.8C1.4,6.1,1.3,6.4,1.3,6.7c0,0.2,0,0.4,0.1,0.6
	c0,0.2,0.1,0.4,0.1,0.5H2.7z M2.7,10.6C2.9,10.4,3,10.2,3,10c0-0.2-0.1-0.4-0.2-0.6C2.6,9.3,2.4,9.2,2.2,9.2c-0.2,0-0.4,0.1-0.6,0.2
	C1.4,9.6,1.3,9.8,1.3,10c0,0.2,0.1,0.4,0.2,0.6c0.2,0.2,0.4,0.2,0.6,0.2C2.4,10.8,2.6,10.7,2.7,10.6L2.7,10.6z"/>
</svg>
