<?xml version="1.0" encoding="utf-8"?>
<!-- Generator: Adobe Illustrator 18.0.0, SVG Export Plug-In . SVG Version: 6.00 Build 0)  -->
<!DOCTYPE svg PUBLIC "-//W3C//DTD SVG 1.1//EN" "http://www.w3.org/Graphics/SVG/1.1/DTD/svg11.dtd">
<svg version="1.1" id="Слой_1" xmlns="http://www.w3.org/2000/svg" xmlns:xlink="http://www.w3.org/1999/xlink" x="0px" y="0px"
	 width="16px" height="16px" viewBox="0 0 16 16" enable-background="new 0 0 16 16" xml:space="preserve">
<path fill-rule="evenodd" clip-rule="evenodd" fill="#959595" d="M15.3,16H0.7C0.3,16,0,15.7,0,15.2c0-0.4,0.3-0.8,0.7-0.8h14.5
	c0.4,0,0.8,0.3,0.8,0.8C16,15.7,15.7,16,15.3,16z M14.5,13h-2c-0.6,0-1-0.4-1-1V4c0-0.6,0.4-1,1-1h2c0.6,0,1,0.4,1,1v8
	C15.5,12.6,15.1,13,14.5,13z M14,4.5h-1v7h1V4.5z M9,13H7c-0.6,0-1-0.4-1-1V1c0-0.6,0.4-1,1-1h2c0.6,0,1,0.4,1,1v11
	C10,12.6,9.6,13,9,13z M8.5,1.5h-1v10h1V1.5z M3.5,13h-2c-0.6,0-1-0.4-1-1V7c0-0.6,0.4-1,1-1h2c0.6,0,1,0.4,1,1v5
	C4.5,12.6,4.1,13,3.5,13z M3,7.5H2v4h1V7.5z"/>
</svg>
