<?xml version="1.0" encoding="utf-8"?>
<!-- Generator: Adobe Illustrator 18.0.0, SVG Export Plug-In . SVG Version: 6.00 Build 0)  -->
<!DOCTYPE svg PUBLIC "-//W3C//DTD SVG 1.1//EN" "http://www.w3.org/Graphics/SVG/1.1/DTD/svg11.dtd">
<svg version="1.1" id="Слой_1" xmlns="http://www.w3.org/2000/svg" xmlns:xlink="http://www.w3.org/1999/xlink" x="0px" y="0px"
	 width="19px" height="20.4px" viewBox="0 0 19 20.4" enable-background="new 0 0 19 20.4" xml:space="preserve">
<path fill="#3EB4C5" d="M17.9,14.2c-1.3-1.1-2.2-3.9-2.2-7.2c0-2.5-1.7-4.6-4.1-5.4c-0.2-0.9-1-1.6-2-1.6c-1,0-1.8,0.7-2,1.6
	C5.1,2.4,3.4,4.5,3.4,7c0,3.3-0.9,6.1-2.2,7.2C0.4,14.8,0,15.6,0,16.5c0,1.1,0.9,1.9,2,1.9h5.4c0,1.1,0.9,1.9,2,1.9
	c1.1,0,2-0.9,2-1.9H17c1.1,0,2-0.9,2-1.9C19,15.6,18.6,14.8,17.9,14.2z M2,16.5c0-0.4,0.2-0.7,0.4-0.9c1.8-1.5,3-4.8,3-8.6
	c0-2.1,1.8-3.8,4.1-3.8s4.1,1.7,4.1,3.8c0,3.9,1.1,7.2,3,8.6c0.3,0.2,0.4,0.6,0.4,0.9H2z"/>
</svg>
