<?xml version="1.0" encoding="utf-8"?>
<!-- Generator: Adobe Illustrator 18.0.0, SVG Export Plug-In . SVG Version: 6.00 Build 0)  -->
<!DOCTYPE svg PUBLIC "-//W3C//DTD SVG 1.1//EN" "http://www.w3.org/Graphics/SVG/1.1/DTD/svg11.dtd">
<svg version="1.1" id="Слой_1" xmlns="http://www.w3.org/2000/svg" xmlns:xlink="http://www.w3.org/1999/xlink" x="0px" y="0px"
	 width="16px" height="19px" viewBox="0 0 16 19" enable-background="new 0 0 16 19" xml:space="preserve">
<path fill="#3399ff" d="M8,2.2l6.2,5.9v9.1h-3.1v-4.2c0-0.7-0.6-1.2-1.2-1.2H6.2c-0.7,0-1.2,0.5-1.2,1.2v4.2H1.8V8.2L8,2.2 M8.5,0.2
	c-0.3-0.3-0.8-0.3-1.1,0L0.4,7.1C0.1,7.3,0,7.6,0,7.9v9.9C0,18.5,0.6,19,1.2,19h4.3c0.7,0,1.2-0.5,1.2-1.2v-4.2h2.5v4.2
	c0,0.7,0.6,1.2,1.2,1.2h4.3c0.7,0,1.2-0.5,1.2-1.2V7.9c0-0.3-0.1-0.6-0.4-0.8L8.5,0.2z"/>
</svg>
