<?xml version="1.0" encoding="utf-8"?>
<!-- Generator: Adobe Illustrator 18.0.0, SVG Export Plug-In . SVG Version: 6.00 Build 0)  -->
<!DOCTYPE svg PUBLIC "-//W3C//DTD SVG 1.1//EN" "http://www.w3.org/Graphics/SVG/1.1/DTD/svg11.dtd">
<svg version="1.1" id="Слой_1" xmlns="http://www.w3.org/2000/svg" xmlns:xlink="http://www.w3.org/1999/xlink" x="0px" y="0px"
	 width="16px" height="16px" viewBox="0 0 16 16" enable-background="new 0 0 16 16" xml:space="preserve">
<g>
	<g>
		<path fill="#959595" d="M15.2,13.6l-2.5-7.3l1.5-1.8l-0.5-0.4l-2.6,3.2H3.8c-1.1,0-1.4,0.9-1.4,1.4l0,4.9H0v1.5h16v-1.5H15.2z
			 M2.7,13.6V8.7c0-0.1,0.1-1,1-1h8l2,5.9H2.7z M2.2,16c0.4,0,0.7-0.3,0.7-0.7H1.5C1.5,15.7,1.8,16,2.2,16z M13.9,16
			c0.4,0,0.7-0.3,0.7-0.7h-1.3C13.2,15.7,13.5,16,13.9,16z M6.1,6.2c0.1,0.1,0.2,0.1,0.3,0.1c0.1,0,0.2-0.1,0.3-0.1
			c0.2-0.2,0.1-0.5,0-0.6C6.2,5,5.6,4.4,5.6,4.1C5.8,4,6.6,4,7.3,4c0.2,0,0.5-0.2,0.5-0.4c0-0.2-0.2-0.5-0.4-0.5
			C6.9,3.1,5.5,3,4.9,3.5C4.8,3.7,4.7,3.8,4.7,4C4.6,4.8,5.8,5.9,6.1,6.2z M8.1,2.6c0.7,0,1.3-0.6,1.3-1.3C9.4,0.6,8.8,0,8.1,0
			C7.4,0,6.8,0.6,6.8,1.3C6.8,2,7.4,2.6,8.1,2.6z M7.4,8H6c-0.5,1.5-1.2,3.6-1.7,4.2c-0.2,0.3-0.2,0.7,0.1,1
			c0.1,0.1,0.3,0.1,0.4,0.1c0.2,0,0.4-0.1,0.6-0.3C6.1,12.1,7.2,8.7,7.4,8C7.4,8,7.4,8,7.4,8z M7.6,8C8,8.4,8.3,8.7,8.3,8.8
			c0,0.5-0.2,1.2-0.9,1.8c-0.3,0.2-0.4,0.7-0.1,1c0.1,0.2,0.3,0.3,0.5,0.3c0.1,0,0.3,0,0.4-0.1c0.8-0.6,1.4-1.6,1.4-2.7
			c0-0.3-0.1-0.6-0.2-0.9H7.6z M7.9,3.6c0,0.3-0.3,0.5-0.6,0.5c-0.3,0-0.7,0-1,0c0,0.2-0.1,0.4-0.2,0.6C6.3,5,6.6,5.2,6.8,5.4
			C7,5.6,7.1,6,6.9,6.2C6.7,6.4,6.6,6.4,6.4,6.4c-0.1,0-0.3,0-0.4-0.1c0,0-0.1-0.1-0.1-0.1c0,0.3-0.1,0.6-0.1,1h2.8
			C8.3,6.9,8,6.6,7.8,6.5c0-0.3,0.1-0.5,0.1-0.8c1.4,0,2.2-0.6,2.3-0.6c0.2-0.1,0.2-0.4,0.1-0.6c-0.1-0.2-0.4-0.2-0.6-0.1
			c0,0-0.6,0.4-1.6,0.5c0.1-0.6,0.3-1,0.3-1c0.2-0.5-0.1-1-0.6-1.2C7.3,2.5,6.9,2.7,6.7,3c0.3,0,0.5,0,0.7,0
			C7.7,3.1,7.9,3.3,7.9,3.6z"/>
	</g>
</g>
</svg>
