<?xml version="1.0" encoding="utf-8"?>
<!-- Generator: Adobe Illustrator 18.0.0, SVG Export Plug-In . SVG Version: 6.00 Build 0)  -->
<!DOCTYPE svg PUBLIC "-//W3C//DTD SVG 1.1//EN" "http://www.w3.org/Graphics/SVG/1.1/DTD/svg11.dtd">
<svg version="1.1" id="Слой_1" xmlns="http://www.w3.org/2000/svg" xmlns:xlink="http://www.w3.org/1999/xlink" x="0px" y="0px"
	 width="23.1px" height="20.4px" viewBox="0 0 23.1 20.4" enable-background="new 0 0 23.1 20.4" xml:space="preserve">
<path fill="#3399ff" d="M21.8,0h-4.6c-2.4,0-4.5,0.7-5.6,1.9C10.4,0.7,8.4,0,5.9,0H1.3C0.6,0,0,0.6,0,1.4V17c0,0.7,0.6,1.4,1.3,1.4
	h4.6c1.8,0,3.7,0.8,4.4,1.5c0.3,0.3,0.7,0.5,1.2,0.5h0.1c0.4,0,0.9-0.2,1.2-0.5c0.7-0.7,2.6-1.5,4.4-1.5h4.6c0.7,0,1.3-0.6,1.3-1.4
	V1.4C23.1,0.6,22.5,0,21.8,0z M5.9,16.3H2V2h4c2.8,0,4.6,1.2,4.6,2v13.3C9.4,16.7,7.8,16.3,5.9,16.3z M21.1,16.3h-4
	c-1.8,0-3.4,0.4-4.6,1.1V4.1c0-0.8,1.8-2,4.6-2h4V16.3z"/>
</svg>
