<?xml version="1.0" encoding="utf-8"?>
<!-- Generator: Adobe Illustrator 18.0.0, SVG Export Plug-In . SVG Version: 6.00 Build 0)  -->
<!DOCTYPE svg PUBLIC "-//W3C//DTD SVG 1.1//EN" "http://www.w3.org/Graphics/SVG/1.1/DTD/svg11.dtd">
<svg version="1.1" id="Слой_1" xmlns="http://www.w3.org/2000/svg" xmlns:xlink="http://www.w3.org/1999/xlink" x="0px" y="0px"
	 width="16px" height="17px" viewBox="4.5 17 16 17" enable-background="new 4.5 17 16 17" xml:space="preserve">
<g>
	<g>
		<path fill="#429DC2" d="M6.4,17c0,0-1.3,0.4-0.7,1.9c-0.6,0.7-0.9,1.4-0.4,2.3c-0.7,0.5-1.1,1.7-0.3,2.6c-0.5,0.6-1.3,2.5,1.2,3.2
			c1,0,2.7,0,2.7,0s0.5-0.1,0.5,0.3c0,0.4-0.1,0.8-0.5,1.2c-0.4,0.5-1.2,2-1.1,3C8,32.7,8.3,34,9.2,34c0.9,0,0.9-0.9,1-1.6
			c0.4-2.3,1.8-2.5,3-4.1c1-1.4,0.9-1.9,1.3-2.3c0.9-0.8,1.2-0.6,1.4-1v-7.5L15.2,17H6.4z M20.4,17h-3.7c-0.1,0-0.1,0.1-0.1,0.1v8.1
			c0,0.1,0.1,0.1,0.1,0.1h3.7c0.1,0,0.1-0.1,0.1-0.1v-8.1C20.5,17.1,20.4,17,20.4,17z"/>
	</g>
</g>
</svg>
