<?xml version="1.0" encoding="utf-8"?>
<!-- Generator: Adobe Illustrator 18.0.0, SVG Export Plug-In . SVG Version: 6.00 Build 0)  -->
<!DOCTYPE svg PUBLIC "-//W3C//DTD SVG 1.1//EN" "http://www.w3.org/Graphics/SVG/1.1/DTD/svg11.dtd">
<svg version="1.1" id="Слой_1" xmlns="http://www.w3.org/2000/svg" xmlns:xlink="http://www.w3.org/1999/xlink" x="0px" y="0px"
	 width="31px" height="25px" viewBox="0 0 31 25" enable-background="new 0 0 31 25" xml:space="preserve">
<g>
	<g>
		<path fill="#959595" d="M5.5,14.8V8H1.9C0.9,8,0,8.9,0,9.9v9.3c0,1.1,0.9,1.9,1.9,1.9h1.5C3.7,24.5,7.6,25,7.6,25
			c-0.6-1.5-0.9-2.8-0.9-3.9h10c1.1,0,1.9-0.9,1.9-1.9v-1H8.9C7.1,18.2,5.5,16.7,5.5,14.8z M28.4,0H8.9C7.5,0,6.4,1.2,6.4,2.6v12.2
			c0,1.4,1.1,2.6,2.6,2.6h13.2c-0.1,1.4-0.4,3.2-1.2,5.1c0,0,5.2-0.7,5.5-5.1h2c1.4,0,2.6-1.2,2.6-2.6V2.6C31,1.2,29.8,0,28.4,0z
			 M26.4,11.4H11V9.8h15.3V11.4z M26.4,8H11V6.4h15.3V8z"/>
	</g>
</g>
</svg>
