<?xml version="1.0" encoding="utf-8"?>
<!-- Generator: Adobe Illustrator 18.0.0, SVG Export Plug-In . SVG Version: 6.00 Build 0)  -->
<!DOCTYPE svg PUBLIC "-//W3C//DTD SVG 1.1//EN" "http://www.w3.org/Graphics/SVG/1.1/DTD/svg11.dtd">
<svg version="1.1" id="Слой_1" xmlns="http://www.w3.org/2000/svg" xmlns:xlink="http://www.w3.org/1999/xlink" x="0px" y="0px"
	 width="28px" height="24px" viewBox="0 0 28 24" enable-background="new 0 0 28 24" xml:space="preserve">
<path fill="#959595" d="M14.3,0C6.8,0,0.7,5.2,0.7,11.6c0,2.2,0.7,4.3,2,6L0,24l7.9-2.2c1.9,0.9,4.1,1.4,6.5,1.4
	C21.9,23.2,28,18,28,11.6S21.9,0,14.3,0z M9.3,16.7c1.3-0.9,1.5-2.5,1.4-3.6c-0.1,0-0.1,0-0.2,0c-1.5,0-2.8-1.3-2.8-2.8
	S9,7.5,10.6,7.5c1.5,0,2.8,1.3,2.8,2.8C13.3,12.6,11.5,15.3,9.3,16.7z M16.4,16.7c1.3-0.9,1.5-2.5,1.4-3.6c-0.1,0-0.1,0-0.2,0
	c-1.5,0-2.8-1.3-2.8-2.8s1.2-2.8,2.8-2.8c1.5,0,2.8,1.3,2.8,2.8C20.4,12.6,18.6,15.3,16.4,16.7z"/>
</svg>
