<?xml version="1.0" encoding="utf-8"?>
<!-- Generator: Adobe Illustrator 18.0.0, SVG Export Plug-In . SVG Version: 6.00 Build 0)  -->
<!DOCTYPE svg PUBLIC "-//W3C//DTD SVG 1.1//EN" "http://www.w3.org/Graphics/SVG/1.1/DTD/svg11.dtd">
<svg version="1.1" id="Слой_1" xmlns="http://www.w3.org/2000/svg" xmlns:xlink="http://www.w3.org/1999/xlink" x="0px" y="0px"
	 width="18px" height="18px" viewBox="0 0 18 18" enable-background="new 0 0 18 18" xml:space="preserve">
<g>
	<g>
		<path fill="#3399ff" d="M18,16.2l-5.4-5.4c0.8-1.1,1.2-2.5,1.2-3.9c0-3.8-3.1-6.9-6.9-6.9C3.1,0,0,3.1,0,6.9s3.1,6.9,6.9,6.9
			c1.5,0,2.8-0.5,3.9-1.2l5.4,5.4L18,16.2z M2,6.9C2,4.2,4.2,2,6.9,2s4.9,2.2,4.9,4.9s-2.2,4.9-4.9,4.9S2,9.6,2,6.9z"/>
	</g>
</g>
</svg>
