<?xml version="1.0" encoding="utf-8"?>
<!-- Generator: Adobe Illustrator 18.0.0, SVG Export Plug-In . SVG Version: 6.00 Build 0)  -->
<!DOCTYPE svg PUBLIC "-//W3C//DTD SVG 1.1//EN" "http://www.w3.org/Graphics/SVG/1.1/DTD/svg11.dtd">
<svg version="1.1" id="Слой_1" xmlns="http://www.w3.org/2000/svg" xmlns:xlink="http://www.w3.org/1999/xlink" x="0px" y="0px"
	 width="567px" height="202px" viewBox="0 0 567 202" enable-background="new 0 0 567 202" xml:space="preserve">
<g>
	<g>
		<path fill="#3FB4C6" d="M14,123.4h13.1V52.5h19.3V41.2H27.1V28.6c0-11.6,4.6-17.4,13.8-17.4c3.3,0,6.2,0.7,8.7,2.2V1.4
			c-2.4-1-5.5-1.4-9.5-1.4c-7.4,0-13.6,2.5-18.6,7.5c-5,5-7.5,11.8-7.5,20.4v13.3H0v11.2h14V123.4z M60.5,123.4h13.2V41.2H60.5
			V123.4z M67.2,20.4c2.4,0,4.5-0.8,6.1-2.5c1.7-1.7,2.5-3.7,2.5-6c0-2.5-0.8-4.5-2.5-6.1c-1.7-1.6-3.7-2.4-6.1-2.4
			c-2.4,0-4.4,0.8-6,2.4c-1.7,1.6-2.5,3.7-2.5,6.1c0,2.5,0.8,4.5,2.5,6.1C62.9,19.6,64.9,20.4,67.2,20.4z M278.2,125.3
			c11.1,0,19.6-4.9,25.3-14.8h0.3v12.8h13.2V69.9c0-20.4-9.7-30.6-29-30.6c-10.5,0-19.8,2.6-27.9,7.7v13.5
			c8-6.7,16.9-10.1,26.8-10.1c11.3,0,16.9,7,16.9,20.9l-24.6,3.4c-18.1,2.5-27.1,11.4-27.1,26.8c0,7.2,2.3,12.9,6.9,17.2
			C263.6,123.1,270,125.3,278.2,125.3z M270.2,89.1c3.1-2.2,7.7-3.7,13.8-4.5l19.8-2.7V90c0,7-2.1,12.8-6.4,17.4
			c-4.3,4.6-9.6,6.9-16.2,6.9c-4.8,0-8.6-1.3-11.4-3.8c-2.9-2.5-4.3-5.8-4.3-9.8C265.5,95.1,267.1,91.2,270.2,89.1z M370.1,125.3
			c12.7,0,22.1-5.3,28.2-15.9h0.3v14h13.2V1.8h-13.2v50.9h-0.3c-5.1-8.9-13.3-13.3-24.6-13.3c-11.4,0-20.5,4.1-27.4,12.3
			c-6.8,8.2-10.3,19.1-10.3,32.6c0,12.7,3.1,22.7,9.3,30C351.6,121.6,359.8,125.3,370.1,125.3z M356.5,59.2
			c4.6-5.9,10.9-8.8,18.9-8.8c6.7,0,12.3,2.3,16.7,6.9c4.4,4.6,6.6,10.2,6.6,16.8v12.1c0,8.1-2.3,14.8-6.9,20.1
			c-4.6,5.3-10.5,7.9-17.9,7.9c-7.4,0-13.4-2.7-17.8-8.2c-4.4-5.5-6.6-13-6.6-22.4C349.6,73.2,351.9,65.1,356.5,59.2z M458.6,125.3
			c11.1,0,19.6-4.9,25.3-14.8h0.3v12.8h13.2V69.9c0-20.4-9.7-30.6-29-30.6c-10.5,0-19.8,2.6-27.9,7.7v13.5
			c8-6.7,16.9-10.1,26.8-10.1c11.3,0,16.9,7,16.9,20.9l-24.6,3.4c-18.1,2.5-27.1,11.4-27.1,26.8c0,7.2,2.3,12.9,6.9,17.2
			C444,123.1,450.4,125.3,458.6,125.3z M450.5,89.1c3.1-2.2,7.7-3.7,13.8-4.5l19.8-2.7V90c0,7-2.1,12.8-6.4,17.4
			c-4.3,4.6-9.6,6.9-16.2,6.9c-4.8,0-8.6-1.3-11.4-3.8c-2.9-2.5-4.3-5.8-4.3-9.8C445.9,95.1,447.4,91.2,450.5,89.1z M535.3,81.5
			c0-9.1,1.9-16.4,5.7-21.7c3.8-5.3,8.5-7.9,14.1-7.9c4.3,0,7.6,0.9,9.9,2.6V40.9c-1.8-0.7-4.4-1.1-7.9-1.1c-4.8,0-9.1,1.6-12.9,4.9
			c-3.9,3.2-6.7,7.7-8.6,13.5h-0.3V41.2h-13.2v82.1h13.2V81.5z M92.4,139.1H0.5v11.7h91.9c-0.2-2-0.3-4-0.3-6.1
			C92.1,142.9,92.2,141,92.4,139.1z M228.6,139.1c0.2,1.9,0.3,3.8,0.3,5.7c0,2-0.1,4.1-0.3,6.1H567v-11.7H228.6z M104.6,101.1
			c0,1.5,0.1,2.8,0.2,4.2c3.7-5.2,8-9.8,13-13.7v-39h20.7V41.2h-20.7V16.9l-13.2,4.3v20.1H90.4v11.2h14.1V101.1z M243.8,54.5V40.9
			c-1.8-0.7-4.4-1.1-7.9-1.1c-4.8,0-9.1,1.6-12.9,4.9c-3.9,3.2-6.7,7.7-8.6,13.5h-0.3V41.2H201v48.6c4.9,3.6,9.4,7.9,13.2,12.8v-21
			c0-9.1,1.9-16.4,5.7-21.7c3.8-5.3,8.5-7.9,14.1-7.9C238.2,51.9,241.5,52.8,243.8,54.5z M159.7,91.4c-30.5,0-55.3,24.8-55.3,55.3
			c0,30.5,24.8,55.3,55.3,55.3c30.5,0,55.3-24.8,55.3-55.3C215,116.2,190.2,91.4,159.7,91.4z M206.5,136.8c0.9,4.3,1.4,8.6,1.1,12.6
			c0,2-0.4,4-0.6,5.9c-0.3,1.9-0.8,3.7-1.2,5.4c-0.6,1.7-1,3.3-1.7,4.8c-0.7,1.5-1.2,2.9-1.9,4.2c-0.7,1.3-1.4,2.4-2,3.5
			c-0.7,1-1.4,2-2,2.8c-1.1,1.7-2.4,2.8-3.1,3.7c-0.1,0.1-0.1,0.2-0.2,0.2l2.5,2.5l-1.9,1.9L161.2,150c-0.4,0.2-0.9,0.3-1.5,0.3
			c-1,0-1.9-0.3-2.6-1c-0.7-0.7-1.1-1.5-1.1-2.6c0-1,0.4-1.8,1.1-2.5c0.7-0.7,1.6-1,2.6-1c1,0,1.8,0.3,2.5,1c0.7,0.7,1,1.5,1,2.6
			c0,0.5-0.1,1-0.3,1.4l15,15c0.4-0.4,0.8-0.8,1.3-1.5c0.3-0.4,0.7-0.9,1.1-1.4c0.3-0.5,0.7-1.1,1.1-1.8c0.7-1.3,1.4-2.8,2-4.5
			c0.5-1.8,1-3.7,1.1-5.8c0.2-2.1,0-4.3-0.3-6.6c-0.4-2.3-1.2-4.6-2.3-6.8c-1.1-2.2-2.6-4.2-4.3-6.1c-1.8-1.8-3.7-3.4-5.9-4.6
			c-2.2-1.2-4.5-2.1-6.8-2.6c-2.3-0.5-4.6-0.8-6.8-0.7c-2.2,0-4.2,0.4-6.1,0.9c-1.8,0.5-3.5,1.2-4.9,1.9c-0.7,0.4-1.3,0.7-1.9,1.1
			c-0.6,0.4-1.1,0.7-1.5,1.1c-1,0.6-1.6,1.3-2,1.7c-0.5,0.4-0.7,0.6-0.7,0.6s0.2-0.2,0.7-0.6c0.5-0.4,1-1.1,2-1.7
			c0.5-0.3,1-0.7,1.5-1.1c0.6-0.4,1.2-0.8,1.9-1.2c1.4-0.8,3-1.5,4.9-2.2c1.9-0.6,4-1.1,6.2-1.2c2.3-0.2,4.7,0,7.1,0.4
			c2.4,0.4,4.9,1.3,7.2,2.5c2.3,1.2,4.5,2.8,6.5,4.6c1.8,1.8,3.6,4,4.9,6.3c1.3,2.3,2.3,4.8,2.8,7.3c0.5,2.5,0.8,4.9,0.7,7.3
			c0,2.3-0.5,4.5-1,6.5c-0.6,2-1.3,3.7-2.1,5.2c-0.4,0.7-0.8,1.4-1.2,2c-0.4,0.6-0.8,1.1-1.1,1.6c-0.5,0.8-1.1,1.4-1.5,1.9l4.7,4.7
			c0.5-0.6,1.4-1.3,2.2-2.5c0.5-0.6,0.9-1.3,1.5-2c0.5-0.8,1-1.6,1.5-2.5c0.5-0.9,1-1.9,1.5-3c0.5-1.1,0.9-2.2,1.3-3.4
			c0.7-2.5,1.4-5.2,1.5-8.2c0.3-3,0-6.1-0.5-9.3c-0.6-3.2-1.8-6.4-3.3-9.5c-1.6-3.1-3.6-5.8-6.1-8.5c-2.4-2.4-5.2-4.6-8.2-6.3
			c-3.1-1.6-6.2-2.9-9.5-3.6c-3.2-0.7-6.4-1.1-9.5-0.8c-3.1,0.1-5.9,0.7-8.5,1.3c-1.3,0.4-2.5,0.8-3.6,1.3c-1.1,0.5-2.2,0.9-3.1,1.4
			c-0.9,0.5-1.8,1-2.6,1.5c-0.8,0.5-1.5,1-2.1,1.5c-1.3,0.9-2.2,1.8-2.8,2.3c-0.6,0.6-1,0.8-1,0.8s0.3-0.3,0.9-0.9
			c0.6-0.5,1.4-1.5,2.7-2.4c0.6-0.5,1.3-1,2.1-1.6c0.8-0.5,1.7-1,2.6-1.6c0.9-0.6,2-1,3.1-1.6c1.1-0.5,2.4-0.9,3.6-1.4
			c2.6-0.8,5.5-1.4,8.6-1.6c3.1-0.3,6.4,0,9.8,0.6c3.4,0.6,6.7,1.9,9.9,3.4c3.2,1.7,6.1,3.8,8.9,6.4c2.5,2.5,4.9,5.5,6.6,8.7
			c1.7,3.2,3.1,6.5,3.8,9.9c0.7,3.4,1.1,6.8,0.9,10c-0.1,3.2-0.7,6.2-1.4,8.9c-0.5,1.3-0.8,2.6-1.3,3.8c-0.5,1.2-1,2.3-1.5,3.3
			c-0.6,1-1.1,1.9-1.6,2.8c-0.6,0.8-1.1,1.5-1.6,2.2c-0.9,1.4-1.8,2.2-2.4,2.9l4.7,4.7c0-0.1,0.1-0.1,0.1-0.1
			c0.7-0.8,1.8-1.8,2.9-3.4c0.6-0.8,1.2-1.6,1.9-2.6c0.6-1,1.3-2.1,2-3.2c0.7-1.2,1.2-2.5,1.9-3.8c0.6-1.4,1.1-2.9,1.7-4.5
			c0.4-1.6,0.9-3.3,1.3-5c0.2-1.8,0.7-3.6,0.7-5.5c0.4-3.8,0-7.9-0.7-12c-0.8-4.1-2.3-8.2-4.3-12.1c-2.1-3.9-4.7-7.4-7.9-10.8
			c-3.2-3.1-6.8-5.9-10.6-8.1c-3.9-2.1-8-3.7-12.2-4.6c-4.1-0.8-8.3-1.3-12.2-1c-2,0-3.8,0.4-5.7,0.6c-1.8,0.3-3.5,0.8-5.2,1.2
			c-1.6,0.6-3.2,1-4.6,1.6c-1.4,0.7-2.8,1.2-4,1.9c-1.2,0.7-2.3,1.3-3.4,1.9c-1,0.7-1.9,1.3-2.7,1.9c-1.7,1.1-2.7,2.3-3.6,3
			c-0.8,0.7-1.2,1.1-1.2,1.1s0.4-0.4,1.2-1.1c0.8-0.7,1.9-1.9,3.5-3c0.8-0.6,1.7-1.3,2.7-2c1-0.6,2.2-1.3,3.4-2c1.2-0.7,2.6-1.3,4-2
			c1.4-0.7,3-1.1,4.6-1.8c1.7-0.5,3.4-0.9,5.2-1.3c1.8-0.3,3.7-0.7,5.7-0.7c4-0.4,8.2,0,12.4,0.8c4.3,0.8,8.5,2.4,12.6,4.4
			c4.1,2.1,7.8,4.9,11.3,8.2c3.2,3.2,6.2,7,8.4,11C203.9,128.2,205.6,132.5,206.5,136.8z"/>
	</g>
</g>
</svg>
