<?xml version="1.0" encoding="utf-8"?>
<!-- Generator: Adobe Illustrator 18.0.0, SVG Export Plug-In . SVG Version: 6.00 Build 0)  -->
<!DOCTYPE svg PUBLIC "-//W3C//DTD SVG 1.1//EN" "http://www.w3.org/Graphics/SVG/1.1/DTD/svg11.dtd">
<svg version="1.1" id="Слой_1" xmlns="http://www.w3.org/2000/svg" xmlns:xlink="http://www.w3.org/1999/xlink" x="0px" y="0px"
	 width="86px" height="86px" viewBox="0 0 86 86" enable-background="new 0 0 86 86" xml:space="preserve">
<g>
	<g>
		<path fill="#959595" d="M43,33.4c-6.3,0-11.5,5.2-11.5,11.5c0,6.3,5.2,11.5,11.5,11.5c6.3,0,11.5-5.2,11.5-11.5
			C54.5,38.6,49.3,33.4,43,33.4z M43,51.5c-3.7,0-6.6-3-6.6-6.6c0-3.7,3-6.6,6.6-6.6c3.7,0,6.6,3,6.6,6.6
			C49.6,48.6,46.7,51.5,43,51.5z M43,0C19.3,0,0,19.3,0,43c0,23.7,19.3,43,43,43c23.7,0,43-19.3,43-43C86,19.3,66.7,0,43,0z
			 M66.1,62.1H19.9V29.3h7.8l7.8-5.4h15.1l7.8,5.4h7.8V62.1z"/>
	</g>
</g>
</svg>
