<?xml version="1.0" encoding="utf-8"?>
<!-- Generator: Adobe Illustrator 18.0.0, SVG Export Plug-In . SVG Version: 6.00 Build 0)  -->
<!DOCTYPE svg PUBLIC "-//W3C//DTD SVG 1.1//EN" "http://www.w3.org/Graphics/SVG/1.1/DTD/svg11.dtd">
<svg version="1.1" id="Слой_1" xmlns="http://www.w3.org/2000/svg" xmlns:xlink="http://www.w3.org/1999/xlink" x="0px" y="0px"
	 width="162px" height="162px" viewBox="0 0 162 162" enable-background="new 0 0 162 162" xml:space="preserve">
<g>
	<g>
		<path fill="#959595" d="M81,62.9c-12,0-21.7,9.7-21.7,21.7c0,12,9.7,21.7,21.7,21.7c12,0,21.7-9.7,21.7-21.7
			C102.7,72.6,93,62.9,81,62.9z M81,97.1c-6.9,0-12.5-5.6-12.5-12.5c0-6.9,5.6-12.5,12.5-12.5c6.9,0,12.5,5.6,12.5,12.5
			C93.5,91.5,87.9,97.1,81,97.1z M81,0C36.3,0,0,36.3,0,81c0,44.7,36.3,81,81,81c44.7,0,81-36.3,81-81C162,36.3,125.7,0,81,0z
			 M124.5,117h-87V55.2h14.6L66.7,45h28.5l14.6,10.1h14.6V117z"/>
	</g>
</g>
</svg>
