<?xml version="1.0" encoding="utf-8"?>
<!-- Generator: Adobe Illustrator 18.0.0, SVG Export Plug-In . SVG Version: 6.00 Build 0)  -->
<!DOCTYPE svg PUBLIC "-//W3C//DTD SVG 1.1//EN" "http://www.w3.org/Graphics/SVG/1.1/DTD/svg11.dtd">
<svg version="1.1" id="Слой_1" xmlns="http://www.w3.org/2000/svg" xmlns:xlink="http://www.w3.org/1999/xlink" x="0px" y="0px"
	 width="14px" height="28px" viewBox="0 0 14 28" enable-background="new 0 0 14 28" xml:space="preserve">
<path fill="#D5D5D5" d="M10.2,12c0,0-0.1,0-0.1,0L7,10.4L3.9,12c-0.1,0-0.2,0-0.2,0c-0.1,0-0.1-0.1-0.1-0.2l0.6-3.3L1.7,6
	C1.6,6,1.6,5.9,1.6,5.8c0-0.1,0.1-0.1,0.2-0.1l3.5-0.5l1.5-3C6.9,2,7.1,2,7.2,2.1l1.5,3l3.5,0.5c0.1,0,0.2,0.1,0.2,0.1
	c0,0.1,0,0.2-0.1,0.2L9.8,8.4l0.6,3.3c0,0.1,0,0.2-0.1,0.2C10.3,12,10.2,12,10.2,12z"/>
<path fill="#3FB4C6" d="M10.2,26c0,0-0.1,0-0.1,0L7,24.4L3.9,26c-0.1,0-0.2,0-0.2,0c-0.1,0-0.1-0.1-0.1-0.2l0.6-3.3L1.7,20
	c-0.1-0.1-0.1-0.1-0.1-0.2c0-0.1,0.1-0.1,0.2-0.1l3.5-0.5l1.5-3c0.1-0.1,0.3-0.1,0.4,0l1.5,3l3.5,0.5c0.1,0,0.2,0.1,0.2,0.1
	c0,0.1,0,0.2-0.1,0.2l-2.5,2.4l0.6,3.3c0,0.1,0,0.2-0.1,0.2C10.3,26,10.2,26,10.2,26z"/>
</svg>
