<?xml version="1.0" encoding="utf-8"?>
<!-- Generator: Adobe Illustrator 18.0.0, SVG Export Plug-In . SVG Version: 6.00 Build 0)  -->
<!DOCTYPE svg PUBLIC "-//W3C//DTD SVG 1.1//EN" "http://www.w3.org/Graphics/SVG/1.1/DTD/svg11.dtd">
<svg version="1.1" id="Слой_1" xmlns="http://www.w3.org/2000/svg" xmlns:xlink="http://www.w3.org/1999/xlink" x="0px" y="0px"
	 width="233px" height="30px" viewBox="0 0 233 30" enable-background="new 0 0 233 30" xml:space="preserve">
<g>
	<g>
		<g>
			<path fill="#3399FF" d="M221,7.9c1.1,0,2-0.9,2-2c0-1.1-0.9-2-2-2c-1.1,0-2,0.9-2,2C219,7.1,219.9,7.9,221,7.9z M221.5,13.5
				c0.1,0.1,0.1,0.1,0.2,0.1c0.1,0,0.1,0,0.2-0.1l0.5-0.5c0.1,0,0.2,0.1,0.4,0.1c0,0,0,0,0,0c0.3,0.1,0.6-0.1,0.7-0.4
				c0.1-0.2,0-0.4-0.1-0.5c0,0,0,0,0,0c0,0,0,0-0.1,0c0,0-0.1,0-0.1,0c-0.2,0-0.4,0-0.6-0.1c-1.7-0.3-2.9-1-3.8-1.7
				c0.6,0.8,1.6,1.7,3,2.4l-0.3,0.3C221.4,13.2,221.4,13.3,221.5,13.5z M230,25.2l-0.8-2.2c0.4-0.6,0.6-1.3,0.6-2.1
				c0-1.7-1.2-3.2-2.8-3.6l-1.2-3.3l0,0l1-0.9l-0.8-0.9l-0.6,0.5l-0.7-1.8l1.1-1c0.1-0.1,0.1-0.3,0-0.4c-0.1-0.1-0.3-0.1-0.4,0
				l-1.5,1.4c0,0,0,0,0.1,0.1c0.1,0.1,0.2,0.3,0.2,0.5l0.1-0.1l0.7,1.8l-4.3,3.7c-0.1-1.8-1.1-4.1-4.3-5.3c0.4-0.8,1.2-1.5,1.7-1.9
				c-0.6-0.7-0.9-1.2-0.9-1.3c-0.2-0.4,0-0.8,0.4-1c0.1,0,0.2-0.1,0.3-0.1c0.3,0,0.6,0.2,0.7,0.4c0,0,0.2,0.4,0.7,0.9
				c0.3-0.5,0.3-1.1,0-1.6c-0.5-0.7-1.4-0.9-2.2-0.5c-0.3,0.2-3.1,1.9-4,4.6c-0.3,0.8,0.2,1.7,1,1.9c0.1,0,0.2,0,0.3,0
				c0,0,0.1,0,0.1,0c4.4,0.9,4.1,4,4,4.3c-0.1,0.3,0.1,0.6,0.2,0.8h-0.5l-3.7-3.6l1,0.1c0,0,0,0,0,0c0,0,0.1,0,0.1-0.1l0.1-0.8
				c0,0,0-0.1-0.1-0.1c0,0-1.1-0.3-1.6-0.6c-0.4-0.2-1.2-0.2-1.9-0.2c-0.3,0-0.6,0-0.8,0c0,0-0.1,0-0.1,0.1v1.1c0,0,0,0.1,0.1,0.1
				l1.3,0.1l4,4c-0.8,0.3-1.4,1.1-1.4,2.1c0,0.3,0,0.5,0.1,0.7l-4.4,3.8l0,0h-2V26h2.8l0,0l0,0h3.4v-0.8h-2.4l3.3-2.8
				c0.4,0.3,0.9,0.5,1.4,0.5h5.2c0.7,1.1,1.9,1.8,3.3,1.8c0.9,0,1.7-0.3,2.3-0.8l0.5,1.3h-2V26h6.2v-0.8H230z M217.6,22.3
				c-0.9,0-1.7-0.7-1.7-1.7c0-0.8,0.5-1.4,1.3-1.6l0,0l0,0c0.1,0,0.2,0,0.4,0c0.4,0,0.9,0.2,1.2,0.4l-0.3,0.2
				c-0.2-0.2-0.5-0.3-0.9-0.3c-0.7,0-1.3,0.6-1.3,1.3c0,0.7,0.6,1.3,1.3,1.3c0.7,0,1.3-0.6,1.3-1.3c0-0.3-0.1-0.5-0.2-0.7l0.3-0.2
				c0.2,0.3,0.3,0.6,0.3,0.9C219.3,21.5,218.5,22.3,217.6,22.3z M217.4,20.8c0,0,0.1,0.1,0.1,0.1c0,0,0.1,0,0.1,0l0.5-0.5
				c0,0.1,0.1,0.2,0.1,0.3c0,0.4-0.3,0.7-0.7,0.7c-0.4,0-0.7-0.3-0.7-0.7c0-0.4,0.3-0.7,0.7-0.7c0.2,0,0.3,0,0.4,0.1l-0.6,0.5
				C217.4,20.6,217.4,20.7,217.4,20.8z M220.6,18.4l4.3-3.7l0.8,2.3c-1.1,0.1-2.1,0.6-2.7,1.3H220.6z M226,23.6
				c-1.6,0-2.9-1.3-2.9-2.8c0-1.5,1.3-2.8,2.9-2.8c1.6,0,2.9,1.3,2.9,2.8C228.8,22.4,227.6,23.6,226,23.6z M215.8,14.9
				c0.1,0.3,0.2,0.7,0.2,1l1.9,1.9c0.1-0.1,0.2-0.3,0.2-0.4c0.1-0.4,0.1-0.7,0.1-1c-0.2-0.8-0.8-1.8-2.3-2.4c0,0,0,0.1,0,0.2
				L215.8,14.9C215.8,14.8,215.8,14.9,215.8,14.9z M218.4,7.8c-0.1-0.3-0.5-0.4-0.8-0.3c-0.3,0.1-0.4,0.5-0.3,0.8
				c0.1,0.1,1.7,3.4,6.1,3.7c0,0,0,0,0,0c0.3,0,0.6-0.2,0.6-0.5c0-0.3-0.2-0.6-0.5-0.6C219.8,10.6,218.4,7.9,218.4,7.8z M225.9,19
				c-1,0-1.8,0.8-1.8,1.8c0,1,0.8,1.8,1.8,1.8s1.8-0.8,1.8-1.8C227.8,19.8,226.9,19,225.9,19z"/>
		</g>
	</g>
</g>
<g>
	<path fill="#3399FF" d="M13.3,17.9H12v-11c0-1.7-1.4-3.1-3.1-3.1S5.8,5.2,5.8,6.9H4.6c0-2.4,2-4.4,4.3-4.4c2.4,0,4.3,2,4.3,4.4
		V17.9z"/>
	<path fill="#3399FF" d="M24,17.9h-1.3v-11c0-1.7-1.4-3.1-3.1-3.1c-1.7,0-3.1,1.4-3.1,3.1h-1.3c0-2.4,2-4.4,4.3-4.4s4.3,2,4.3,4.4
		V17.9z"/>
	<path fill="#3399FF" d="M23.4,10.6H12.6V9.3h10.8V10.6z"/>
	<path fill="#3399FF" d="M23.4,15.1H12.6v-1.3h10.8V15.1z"/>
	<path fill="#3399FF" d="M5.8,14.2c0,0-3.6,0.5-3.6,3.5c0,2.4,1.6,4.3,4.6,4.3c4.7,0,8.4-2.7,14.1-2.7c3.5,0,5.1,3.1,5.1,4.5
		c0-3.3-0.4-7.4-6.9-7.4s-8.9,2.7-12.4,2.7C3.9,18.9,2.5,16,5.8,14.2z"/>
	<path fill="#3399FF" d="M0.1,19c0,0-1.3,7.5,8.4,7.5c7,0,9.9-3.3,13.5-3.3c1.5,0,0.2,4.3,0.2,4.3s2.3-2.5,2.3-4.5
		c0-2-1.5-2.3-3.5-2.3c-4.7,0-8.5,2.9-13.6,2.9C4.1,23.6,0.1,21.8,0.1,19z"/>
</g>
<g>
	<path fill="#3399FF" d="M34.2,21.2l-0.1,0.2c0.1-0.7,0.2-1.3,0.3-1.7c1.3,0.4,2.9,0.7,4.3,0.7c1.4,0,3.2-0.3,4.5-0.7
		c0.1,0.4,0.2,0.9,0.2,1.5c-0.9,0.4-3,0.7-4.7,0.7C36.9,22,35,21.6,34.2,21.2z M38.8,23.4c-1.9,0-3.7-0.4-4.7-0.8
		c0,0.9,0.1,1.8,0.5,2.7c0.8,1.8,7.8,1.5,8.4,0c0.4-0.9,0.5-1.7,0.6-2.6C42.3,23.1,40.4,23.4,38.8,23.4z M46.6,7.8
		c-1.2-4.8-8.6-4.7-11-3.8C34.8,4.2,33.8,5,34,5.8c0.2,1.3,1.7,1.6,1.6,3.3c0,0.9-1.1,1.4-1.7,0.3C33.7,9,34,7.9,33.5,7.2
		c-0.4-0.5-1.4-0.1-1.8,0.7c-0.4,0.9-2.4,4.5,2.7,10.7c0.7,0.3,2.3,0.8,4.4,0.8c1.5,0,3.3-0.3,4.6-0.8C44.6,18,48.3,15,46.6,7.8z"/>
</g>
<path fill="#3399FF" d="M65,9.5c-1.2-4-9.5-4.8-9.5,2.5c0,1.1,0.5,2.3,1.2,3.5h2.6l2-5.6l3.1,7.3l2.6-5.8l1.6,4.1h2.5v1h-3.2l-1-2.5
	l-2.6,5.7l-3-7L60,16.5h-2.6c2.8,3.7,7.6,7.1,7.6,7.1S74.5,17,74.5,12C74.5,4.7,66.2,5.5,65,9.5z"/>
<g>
	<path fill="#3399FF" d="M100.1,6.5c-0.6-0.6-1.5-1-2.7-1c-1.3,0-2.2,0.7-2.8,1.6c-3.3-1.6-7.3-0.4-9,2.8l11.8,6
		c1.5-2.9,0.6-6.3-1.9-8.2c0.5-0.7,1.1-1.1,1.9-1.1c0.8,0,1.4,0.2,1.9,0.6c0.7,0.7,0.6,1.7,0.6,1.7v14.2h1.1L101,9
		C101,8.9,101.1,7.5,100.1,6.5z"/>
	<path fill="#3399FF" d="M84.9,11.2l11.8,6l0.5-0.9l-11.8-6L84.9,11.2z"/>
	<path fill="#3399FF" d="M85.3,12.1l-0.7-0.4L84,12.9l0.7,0.4L85.3,12.1z"/>
	<path fill="#3399FF" d="M86.2,14l0.7,0.4l0.6-1.2l-0.7-0.4L86.2,14z"/>
	<path fill="#3399FF" d="M88.5,15.2l0.7,0.4l0.6-1.2L89.1,14L88.5,15.2z"/>
	<path fill="#3399FF" d="M90.7,16.3l0.7,0.4l0.6-1.2l-0.7-0.4L90.7,16.3z"/>
	<path fill="#3399FF" d="M94.2,16.6l-0.7-0.4l-0.6,1.2l0.7,0.4L94.2,16.6z"/>
	<path fill="#3399FF" d="M95.1,18.5l0.7,0.4l0.6-1.2l-0.7-0.4L95.1,18.5z"/>
	<path fill="#3399FF" d="M84.3,13.9l-0.7-0.4L83,14.8l0.7,0.4L84.3,13.9z"/>
	<path fill="#3399FF" d="M85.2,15.9l0.7,0.4l0.6-1.2l-0.7-0.4L85.2,15.9z"/>
	<path fill="#3399FF" d="M87.5,17l0.7,0.4l0.6-1.2l-0.7-0.4L87.5,17z"/>
	<path fill="#3399FF" d="M89.7,18.2l0.7,0.4l0.6-1.2L90.3,17L89.7,18.2z"/>
	<path fill="#3399FF" d="M91.9,19.3l0.7,0.4l0.6-1.2l-0.7-0.4L91.9,19.3z"/>
	<path fill="#3399FF" d="M94.1,20.4l0.7,0.4l0.6-1.2l-0.7-0.4L94.1,20.4z"/>
	<path fill="#3399FF" d="M82.6,15.5L82,16.6l0.7,0.4l0.6-1.2L82.6,15.5z"/>
	<path fill="#3399FF" d="M84.9,16.6l-0.6,1.2l0.7,0.4l0.6-1.2L84.9,16.6z"/>
	<path fill="#3399FF" d="M87.1,17.7l-0.6,1.2l0.7,0.4l0.6-1.2L87.1,17.7z"/>
	<path fill="#3399FF" d="M89.3,18.8L88.7,20l0.7,0.4l0.6-1.2L89.3,18.8z"/>
	<path fill="#3399FF" d="M91.5,20l-0.6,1.2l0.7,0.4l0.6-1.2L91.5,20z"/>
	<path fill="#3399FF" d="M93.1,22.3l0.7,0.4l0.6-1.2l-0.7-0.4L93.1,22.3z"/>
	<path fill="#3399FF" d="M81,18.5l0.7,0.4l0.6-1.2l-0.7-0.4L81,18.5z"/>
	<path fill="#3399FF" d="M83.2,19.6l0.7,0.4l0.6-1.2l-0.7-0.4L83.2,19.6z"/>
	<path fill="#3399FF" d="M85.5,20.8l0.7,0.4l0.6-1.2l-0.7-0.4L85.5,20.8z"/>
	<path fill="#3399FF" d="M87.7,21.9l0.7,0.4l0.6-1.2l-0.7-0.4L87.7,21.9z"/>
	<path fill="#3399FF" d="M89.9,23l0.7,0.4l0.6-1.2l-0.7-0.4L89.9,23z"/>
	<path fill="#3399FF" d="M92.1,24.1l0.7,0.4l0.6-1.2L92.8,23L92.1,24.1z"/>
</g>
<g>
	<path fill="#3399FF" d="M114.7,7.8c0,0-5.8,9.3-5.8,12.4c0,3.2,2.6,5.7,5.8,5.7c3.2,0,5.8-2.6,5.8-5.7
		C120.5,17.1,114.7,7.8,114.7,7.8z M113.6,23.7c-1.7-0.2-3-1.7-3-3.4c0-1.8,1.4-3.3,3.2-3.4c-0.5,1.1-0.8,2.3-0.8,3.6
		C112.9,21.6,113.2,22.7,113.6,23.7z"/>
	<path fill="#3399FF" d="M108.1,4c0,0-2.6,4.2-2.6,5.7c0,1.4,1.2,2.6,2.6,2.6c1.5,0,2.6-1.2,2.6-2.6C110.8,8.2,108.1,4,108.1,4z
		 M107.6,11.2c-0.8-0.1-1.4-0.8-1.4-1.6c0-0.8,0.6-1.5,1.4-1.6c-0.2,0.5-0.3,1-0.3,1.6C107.4,10.3,107.5,10.8,107.6,11.2z"/>
	<path fill="#3399FF" d="M125.3,6.6c0,0-3.2,5-3.2,6.8c0,1.7,1.4,3.1,3.2,3.1c1.7,0,3.2-1.4,3.2-3.1C128.5,11.6,125.3,6.6,125.3,6.6
		z M124.7,15.2c-0.9-0.1-1.6-0.9-1.6-1.9c0-1,0.8-1.8,1.7-1.9c-0.3,0.6-0.4,1.3-0.4,1.9C124.4,14,124.5,14.6,124.7,15.2z"/>
</g>
<g>
	<path fill="#3399FF" d="M138.8,10.1c1.5,0,2.7-1.2,2.7-2.7c0-1.5-1.2-2.7-2.7-2.7c-1.5,0-2.7,1.2-2.7,2.7
		C136.2,8.9,137.4,10.1,138.8,10.1z"/>
	<path fill="#3399FF" d="M149.6,12.3c0,1.7,2.3,2.9,2.3,2.9s-0.3-1-0.3-2.2s2.9-3.4,2.9-5.6c0-2.1-2.5-2.7-2.5-2.7s0.8,0.8,0.8,2
		C152.9,7.9,149.6,10.6,149.6,12.3z"/>
	<path fill="#3399FF" d="M148.1,10.5c0,0-0.2-0.7-0.2-1.6c0-0.9,2.1-2.5,2.1-4S148.2,3,148.2,3s0.6,0.6,0.6,1.4c0,0.9-2.3,2.8-2.3,4
		C146.4,9.6,148.1,10.5,148.1,10.5z"/>
	<path fill="#3399FF" d="M133.8,22.6h-1.3c-0.5,0-1,0.4-1,1c0,0.5,0.4,1,1,1h1.3c0.5,0,1-0.4,1-1C134.8,23,134.3,22.6,133.8,22.6z"
		/>
	<path fill="#3399FF" d="M137.7,22.6h-1.3c-0.5,0-1,0.4-1,1c0,0.5,0.4,1,1,1h1.3c0.5,0,1-0.4,1-1C138.7,23,138.3,22.6,137.7,22.6z"
		/>
	<path fill="#3399FF" d="M141.7,22.6h-1.3c-0.5,0-1,0.4-1,1c0,0.5,0.4,1,1,1h1.3c0.5,0,1-0.4,1-1C142.7,23,142.2,22.6,141.7,22.6z"
		/>
	<path fill="#3399FF" d="M145.6,22.6h-1.3c-0.5,0-1,0.4-1,1c0,0.5,0.4,1,1,1h1.3c0.5,0,1-0.4,1-1C146.6,23,146.1,22.6,145.6,22.6z"
		/>
	<path fill="#3399FF" d="M149.5,18.7c-0.1-0.2-0.3-0.4-0.5-0.6c0,0,0,0,0,0c0,0-0.1,0-0.1-0.1c-0.2-0.1-0.4-0.2-0.7-0.2h-3.1
		l-4.4-6.4c-0.4-0.7-1.3-0.8-2-0.4l-0.6,0.4c0,0,0,0-0.1,0.1c-0.2,0.2-0.4,0.4-0.6,0.7l-2.1,6.4c-0.2,0.8,0.2,1.6,0.9,1.8l0,0
		c0.7,0.3,1.6-0.2,1.8-0.9l1.3-3.8l3,4.3c0.3,0.4,0.8,0.6,1.3,0.6c0,0,0,0,0.1,0h3.7l2.5,5.4c0.3,0.7,1.2,1,1.9,0.7l0,0
		c0.7-0.3,1-1.2,0.7-1.9L149.5,18.7z"/>
</g>
<g>
	<path fill="#3399FF" d="M180.3,23.7l-3.9-11.4l2.3-2.8l-0.7-0.6l-4,5h-11.5c-1.6,0-2.2,1.4-2.2,2.2l0,7.6h-3.7v2.4h25v-2.4H180.3z
		 M160.8,16.2c0-0.1,0.2-1.6,1.6-1.6h12.5l3.2,9.2h-17.3V16.2z"/>
	<path fill="#3399FF" d="M159.9,27.5c0.6,0,1-0.5,1-1h-2.1C158.9,27,159.3,27.5,159.9,27.5z"/>
	<path fill="#3399FF" d="M178.1,27.5c0.6,0,1-0.5,1-1h-2.1C177.1,27,177.6,27.5,178.1,27.5z"/>
	<path fill="#3399FF" d="M166.5,12.3c-0.2,0-0.3-0.1-0.5-0.2c-0.5-0.5-2.3-2.1-2.3-3.4c0-0.3,0.1-0.6,0.4-0.8
		c0.8-0.7,3.1-0.6,3.8-0.6c0.4,0,0.7,0.4,0.6,0.7c0,0.4-0.4,0.7-0.7,0.6c-1.1-0.1-2.3,0-2.7,0.2c0.1,0.4,0.9,1.4,1.8,2.2
		c0.3,0.2,0.3,0.7,0.1,1C166.9,12.3,166.7,12.3,166.5,12.3z"/>
	<path fill="#3399FF" d="M171.1,4.5c0,1.1-0.9,2-2,2c-1.1,0-2-0.9-2-2c0-1.1,0.9-2,2-2C170.2,2.5,171.1,3.4,171.1,4.5z"/>
	<path fill="#3399FF" d="M168.1,15h-2.3c-0.7,2.3-1.9,5.7-2.6,6.5c-0.4,0.5-0.3,1.1,0.2,1.5c0.2,0.1,0.4,0.2,0.7,0.2
		c0.3,0,0.7-0.1,0.9-0.4C166.1,21.4,167.8,16.1,168.1,15C168.1,15.1,168.1,15.1,168.1,15z"/>
	<path fill="#3399FF" d="M168.3,15c0.6,0.5,1.1,1,1.2,1.3c-0.1,0.8-0.3,1.9-1.4,2.7c-0.5,0.4-0.6,1-0.2,1.5c0.2,0.3,0.5,0.4,0.9,0.4
		c0.2,0,0.5-0.1,0.7-0.2c1.3-1,2.1-2.5,2.3-4.3c0-0.5-0.1-1-0.4-1.4H168.3z"/>
	<path fill="#3399FF" d="M172.5,9.5c-0.2-0.3-0.6-0.4-1-0.2c0,0-0.9,0.6-2.5,0.7c0.2-0.9,0.4-1.6,0.4-1.6c0.2-0.8-0.2-1.6-1-1.8
		c-0.6-0.2-1.3,0.1-1.7,0.6c0.4,0,0.8,0,1.1,0c0.5,0,0.8,0.5,0.8,0.9c0,0.5-0.5,0.8-1,0.8c-0.5,0-1.1,0-1.5,0
		c-0.1,0.3-0.2,0.6-0.2,1c0.3,0.3,0.7,0.7,1,1c0.4,0.3,0.4,0.9,0.1,1.2c-0.2,0.2-0.4,0.3-0.7,0.3c-0.2,0-0.4-0.1-0.6-0.2
		c-0.1-0.1-0.1-0.1-0.2-0.2c-0.1,0.5-0.1,1-0.1,1.5h4.3c-0.5-0.4-0.9-0.7-1.3-1c0-0.4,0.1-0.8,0.2-1.2c2.2,0,3.5-0.9,3.6-1
		C172.7,10.2,172.8,9.8,172.5,9.5z"/>
</g>
<g>
	<path fill="#3399FF" d="M197.4,2.9c0,1.3-1.1,2.4-2.4,2.4c-1.3,0-2.4-1.1-2.4-2.4c0-1.3,1.1-2.4,2.4-2.4
		C196.3,0.5,197.4,1.6,197.4,2.9z"/>
	<path fill="#3399FF" d="M205.4,13.2c0.4,0,0.6-0.3,0.6-0.7c0-0.4-0.3-0.6-0.6-0.6h-2.2V7.5h-2.2v4.4h-13c-0.4,0-0.6,0.3-0.6,0.6
		c0,0.4,0.3,0.7,0.6,0.7h13V20h-7.3v7.4h-7.6v2h19.5v-2h-2.4V13.2H205.4z M195,27.5v-6h5.9v6H195z M201.4,13c-0.3,0-0.5-0.2-0.5-0.5
		c0-0.3,0.2-0.5,0.5-0.5c0.3,0,0.5,0.2,0.5,0.5C201.9,12.8,201.7,13,201.4,13z M202.7,13c-0.3,0-0.5-0.2-0.5-0.5
		c0-0.3,0.2-0.5,0.5-0.5s0.5,0.2,0.5,0.5C203.1,12.8,202.9,13,202.7,13z"/>
	<path fill="#3399FF" d="M187.9,13.4c-0.5,0-0.9-0.4-0.9-0.9c0-0.1,0-0.2,0.1-0.4c-1.3,0.2-2.1,0.4-2.2,0.5
		c-0.7,0.2-1.1,0.9-0.9,1.6c0.2,0.7,0.9,1.1,1.6,0.9c0.1,0,5.6-1.6,12.1,0.1c0.1,0,0.2,0,0.3,0c0.2,0,0.5-0.1,0.7-0.2
		c0.6-0.2,1.1-0.9,1.1-1.6H187.9z"/>
	<path fill="#3399FF" d="M196,11.2h-4.6c-0.4,0-0.7-0.3-0.7-0.7c0-0.4,0.3-0.7,0.7-0.7h3.7l1.4-3.1c0.2-0.4,0.6-0.5,0.9-0.4
		c0.4,0.2,0.5,0.6,0.3,0.9L196,11.2z"/>
	<path fill="#3399FF" d="M198.7,6.9c-0.3-0.9-1.2-1.5-2.2-1.2c-0.9,0.3-1.5,1.3-1.2,2.2c0,0.2,0.1,0.3,0.1,0.5l0.8-1.8
		c0.2-0.3,0.5-0.6,0.8-0.6c0.1,0,0.3,0,0.4,0.1c0.2,0.1,0.4,0.3,0.5,0.5c0.1,0.2,0.1,0.5,0,0.7l-1.8,4h0c0,0.1,0,0.2,0,0.2h3.5
		C199.5,9.6,198.8,7.2,198.7,6.9z"/>
</g>
</svg>
