<?xml version="1.0" encoding="utf-8"?>
<!-- Generator: Adobe Illustrator 18.0.0, SVG Export Plug-In . SVG Version: 6.00 Build 0)  -->
<!DOCTYPE svg PUBLIC "-//W3C//DTD SVG 1.1//EN" "http://www.w3.org/Graphics/SVG/1.1/DTD/svg11.dtd">
<svg version="1.1" id="Слой_1" xmlns="http://www.w3.org/2000/svg" xmlns:xlink="http://www.w3.org/1999/xlink" x="0px" y="0px"
	 width="32px" height="16px" viewBox="0 0 32 16" enable-background="new 0 0 32 16" xml:space="preserve">
<path fill="#FFFFFF" d="M12.3,14.5c0,0-0.1,0-0.1,0L8,12.4l-4.1,2.1c-0.1,0.1-0.2,0-0.3,0c-0.1-0.1-0.1-0.2-0.1-0.3l0.8-4.4L0.9,6.7
	C0.8,6.7,0.8,6.5,0.8,6.4c0-0.1,0.1-0.2,0.2-0.2l4.6-0.6l2.1-4c0.1-0.2,0.4-0.2,0.5,0l2.1,4L15,6.2c0.1,0,0.2,0.1,0.2,0.2
	c0,0.1,0,0.2-0.1,0.3l-3.3,3.1l0.8,4.4c0,0.1,0,0.2-0.1,0.3C12.4,14.5,12.3,14.5,12.3,14.5z"/>
<path fill="#3FB4C6" d="M28.3,14.5c0,0-0.1,0-0.1,0L24,12.4l-4.1,2.1c-0.1,0.1-0.2,0-0.3,0c-0.1-0.1-0.1-0.2-0.1-0.3l0.8-4.4
	l-3.3-3.1c-0.1-0.1-0.1-0.2-0.1-0.3c0-0.1,0.1-0.2,0.2-0.2l4.6-0.6l2.1-4c0.1-0.2,0.4-0.2,0.5,0l2.1,4L31,6.2c0.1,0,0.2,0.1,0.2,0.2
	c0,0.1,0,0.2-0.1,0.3l-3.3,3.1l0.8,4.4c0,0.1,0,0.2-0.1,0.3C28.4,14.5,28.3,14.5,28.3,14.5z"/>
</svg>
