<?xml version="1.0" encoding="utf-8"?>
<!-- Generator: Adobe Illustrator 18.0.0, SVG Export Plug-In . SVG Version: 6.00 Build 0)  -->
<!DOCTYPE svg PUBLIC "-//W3C//DTD SVG 1.1//EN" "http://www.w3.org/Graphics/SVG/1.1/DTD/svg11.dtd">
<svg version="1.1" id="Слой_1" xmlns="http://www.w3.org/2000/svg" xmlns:xlink="http://www.w3.org/1999/xlink" x="0px" y="0px"
	 viewBox="0 0 72 72" enable-background="new 0 0 72 72" xml:space="preserve">
<g>
	<g>
		<path fill="#FFFFFF" d="M52.3,45.9c0.2-0.5,0.3-1.3,0.3-2.2c0-2.4-1.2-3.9-4.6-3.9c-4,0-13.4-4.8-13.4-20.3c0,0-0.4,0-1.2,0.1
			c0,0.2,0,0.5,0,1c0,0.4,0,0.8,0,1.3c0,0.5,0.1,1.1,0.1,1.7c0,0.6,0.1,1.3,0.2,2c0.1,0.7,0.2,1.4,0.4,2.2c0.2,0.7,0.4,1.5,0.7,2.2
			c0.2,0.8,0.6,1.5,1,2.2c0.2,0.4,0.4,0.7,0.6,1.1c0.2,0.3,0.4,0.7,0.7,1c0.2,0.3,0.5,0.6,0.7,1c0.3,0.3,0.5,0.6,0.8,0.9
			c0.2,0.3,0.5,0.5,0.8,0.8c0.3,0.2,0.5,0.5,0.8,0.7c0.6,0.4,1.1,0.8,1.6,1.1c0.5,0.3,1,0.5,1.5,0.7c0.5,0.2,0.9,0.3,1.2,0.4
			c0.3,0.1,0.6,0.1,0.8,0.1c0.2,0,0.3,0,0.3,0s-0.1,0-0.3,0c-0.2,0-0.5,0-0.8-0.1c-0.4,0-0.8-0.1-1.3-0.3c-0.5-0.1-1-0.3-1.6-0.6
			c-0.6-0.3-1.2-0.6-1.8-1c-0.3-0.2-0.6-0.4-0.9-0.6c-0.3-0.2-0.6-0.5-0.9-0.7c-0.3-0.3-0.6-0.5-0.9-0.8c-0.3-0.3-0.6-0.6-0.8-0.9
			c-0.3-0.3-0.5-0.7-0.8-1c-0.2-0.4-0.5-0.7-0.7-1.1c-0.4-0.7-0.9-1.5-1.2-2.3c-0.4-0.8-0.7-1.6-0.9-2.3c-0.3-0.8-0.5-1.5-0.6-2.3
			c-0.2-0.7-0.3-1.4-0.4-2.1c-0.1-0.6-0.2-1.2-0.3-1.8c0-0.5-0.1-1-0.1-1.4c0-0.3,0-0.5-0.1-0.7c-4,0.6-10.2,1.8-10.7,3.6
			c-0.9,2.6-2.6,11.5-2.1,15.1c0.5,3.6,2.3,9.1,2.3,9.1h1.7v2.4h-4.2v2.4h32.6c1.3,0,3.2-0.9,3.2-3.5C53.9,47.4,53.1,46.4,52.3,45.9
			z M24.6,47.8h1.8v-4.5c0,0,8.1,4.5,12.3,4.5h0.9v2.4h-15V47.8z M50.7,50.1h-8.8v-2.4h8.8l0,0c0.4,0,0.9,0.3,0.9,1.2
			C51.6,49.7,51.3,50.1,50.7,50.1z"/>
	</g>
</g>
</svg>
