<?xml version="1.0" encoding="utf-8"?>
<!-- Generator: Adobe Illustrator 18.0.0, SVG Export Plug-In . SVG Version: 6.00 Build 0)  -->
<!DOCTYPE svg PUBLIC "-//W3C//DTD SVG 1.1//EN" "http://www.w3.org/Graphics/SVG/1.1/DTD/svg11.dtd">
<svg version="1.1" id="Слой_1" xmlns="http://www.w3.org/2000/svg" xmlns:xlink="http://www.w3.org/1999/xlink" x="0px" y="0px"
	 viewBox="0 0 72 72" enable-background="new 0 0 72 72" xml:space="preserve">
<path fill="#FFFFFF" d="M15,36c0,2.7,0.5,5.4,1.5,7.9c1.1,2.6,2.6,4.9,4.6,6.9c2,2,4.3,3.6,6.9,4.6c2.5,1,5.2,1.5,7.9,1.5
	c2.7,0,5.4-0.5,7.9-1.5c2.6-1.1,4.9-2.6,6.9-4.6c2-2,3.6-4.3,4.6-6.9c1-2.5,1.5-5.2,1.5-7.9c0-2.7-0.5-5.4-1.5-7.9
	c-1.1-2.6-2.6-4.9-4.6-6.9c-2-2-4.3-3.6-6.9-4.6c-2.5-1-5.2-1.5-7.9-1.5c-2.7,0-5.4,0.5-7.9,1.5l0,0c-2.6,1.1-4.9,2.6-6.9,4.6
	c-2,2-3.6,4.3-4.6,6.9C15.5,30.6,15,33.3,15,36 M20.2,44.8c-1-0.6-1.9-1.4-2.8-2.2c-1.3-3.5-1.5-7.4-0.6-11c0.4-0.8,0.8-1.5,1.3-2.2
	c0.2-0.2,0.3-0.5,0.5-0.7l4.7,2.8v0.1c0,2.5,0.2,5.1,0.8,7.6c0,0,0,0,0,0L20.5,45C20.4,44.9,20.3,44.9,20.2,44.8L20.2,44.8z
	 M34.3,54.6c0.8,0.4,1.7,0.8,2.5,1.1c-3.7,0.2-7.4-0.7-10.7-2.6l7.9,1.4C34.2,54.5,34.3,54.6,34.3,54.6L34.3,54.6z M34.3,53.1
	l-9.4-1.7c-1.1-1.3-2.1-2.7-2.9-4.2c-0.2-0.4-0.5-0.8-0.6-1.2l3.7-5.8c0.1,0,0.2,0,0.3,0.1c2.3,0.6,4.6,1.1,7,1.4c0.1,0,0.3,0,0.4,0
	l4.4,7.6c-0.8,1.1-1.5,2.1-2.3,3.2C34.6,52.8,34.5,53,34.3,53.1L34.3,53.1z M49.9,49.9c-0.7,0.7-1.5,1.4-2.4,2
	c-0.1-1.1-0.4-2.2-0.7-3.2l4.7-8.8c1.3-0.6,2.5-1.3,3.7-2.1c0.2-0.1,0.3-0.2,0.4-0.4C55.3,42,53.4,46.5,49.9,49.9L49.9,49.9z
	 M49.7,38.5c0.2,0.3,0.3,0.7,0.5,1L45.7,48c0,0-0.1,0-0.1,0c-2.5,0.5-4.9,0.7-7.4,0.7l-4.5-7.8c0.7-1.3,1.4-2.6,2.1-3.9
	c0.5-0.9,0.9-1.8,1.4-2.7l9.4-1C47.7,35,48.8,36.7,49.7,38.5L49.7,38.5z M47.8,28.5c-0.4,1.2-0.9,2.3-1.4,3.5l-9.1,0.9
	c-0.1-0.1-0.2-0.3-0.3-0.4c-1.1-1.2-2.2-2.4-3.2-3.6c0,0,0,0,0,0c-0.4-0.4-0.9-0.9-1.3-1.3l2.5-7.7c0.2,0,0.4-0.1,0.5-0.1
	c1.4-0.1,2.8-0.3,4.2-0.4c0.8,0,1.7-0.1,2.6,0l6.3,7.1C48.3,27.2,48,27.8,47.8,28.5L47.8,28.5z M49.9,22.1c1.7,1.7,3.1,3.7,4,5.8
	c-1.2-0.8-2.4-1.5-3.8-2c-0.2-0.1-0.4-0.2-0.6-0.2l-6.2-7c0-0.3,0.1-0.6,0.1-0.9C45.8,18.8,48,20.2,49.9,22.1L49.9,22.1z M29.7,17.4
	c1.9,0.8,2.5,1.2,4,2.1l-2.4,7.1c0,0,0,0,0,0c-0.5,0.2-1,0.4-1.5,0.6c-2,0.9-3.9,1.9-5.7,3.1l-4.7-2.8c0-0.1,0-0.3,0.1-0.4
	c0.3-0.8,0.6-1.7,1-2.5c0.3-0.6,1.1-1.6,1.5-2.2c1.3-1.3,1.9-1.9,2.1-2.1C27,18.5,27.4,18.5,29.7,17.4L29.7,17.4z"/>
</svg>
