<?xml version="1.0" encoding="utf-8"?>
<!-- Generator: Adobe Illustrator 18.0.0, SVG Export Plug-In . SVG Version: 6.00 Build 0)  -->
<!DOCTYPE svg PUBLIC "-//W3C//DTD SVG 1.1//EN" "http://www.w3.org/Graphics/SVG/1.1/DTD/svg11.dtd">
<svg version="1.1" id="Слой_1" xmlns="http://www.w3.org/2000/svg" xmlns:xlink="http://www.w3.org/1999/xlink" x="0px" y="0px"
	 viewBox="0 0 122 29" enable-background="new 0 0 122 29" xml:space="preserve">
<g>
	<g>
		<path fill="#4B4B4B" d="M22.9,13.3l-6.2-6.2c-0.1-0.1-0.3-0.1-0.5,0l-6.2,6.2C10,13.4,10,13.5,10,13.6c0.1,0.1,0.2,0.2,0.3,0.2
			h2.9v6.8c0,0.2,0.2,0.3,0.3,0.3h5.8c0.2,0,0.3-0.2,0.3-0.3v-6.8h2.9c0.1,0,0.3-0.1,0.3-0.2C23,13.5,23,13.4,22.9,13.3z M19.4,13.2
			c-0.2,0-0.3,0.2-0.3,0.3v6.8h-5.2v-6.8c0-0.2-0.2-0.3-0.3-0.3h-2.4l5.3-5.4l5.3,5.4H19.4z"/>
	</g>
</g>
<g>
	<g>
		<path fill="#FFFFFF" d="M83.9,13.3l-6.2-6.2c-0.1-0.1-0.3-0.1-0.5,0l-6.2,6.2C71,13.4,71,13.5,71,13.6c0.1,0.1,0.2,0.2,0.3,0.2
			h2.9v6.8c0,0.2,0.2,0.3,0.3,0.3h5.8c0.2,0,0.3-0.2,0.3-0.3v-6.8h2.9c0.1,0,0.3-0.1,0.3-0.2C84,13.5,84,13.4,83.9,13.3z M80.4,13.2
			c-0.2,0-0.3,0.2-0.3,0.3v6.8h-5.2v-6.8c0-0.2-0.2-0.3-0.3-0.3h-2.4l5.3-5.4l5.3,5.4H80.4z"/>
	</g>
</g>
</svg>
