<?xml version="1.0" encoding="utf-8"?>
<!-- Generator: Adobe Illustrator 18.0.0, SVG Export Plug-In . SVG Version: 6.00 Build 0)  -->
<!DOCTYPE svg PUBLIC "-//W3C//DTD SVG 1.1//EN" "http://www.w3.org/Graphics/SVG/1.1/DTD/svg11.dtd">
<svg version="1.1" id="Слой_1" xmlns="http://www.w3.org/2000/svg" xmlns:xlink="http://www.w3.org/1999/xlink" x="0px" y="0px"
	 width="18px" height="38px" viewBox="33.5 35.5 18 38" enable-background="new 33.5 35.5 18 38" xml:space="preserve">
<g>
	<g>
		<path fill="#FFFFFF" d="M49.9,43.4h-0.4c0,0,0,0,0-0.1V41c0-0.4-0.3-0.7-0.7-0.7v-0.7l-4.1-4.1h-8.5v4.7c-0.4,0-0.7,0.3-0.7,0.7
			v2.4c0,0,0,0,0,0.1h-0.4c-0.9,0-1.6,0.7-1.6,1.6v4.8c0,0.9,0.7,1.6,1.6,1.6h1.1v3.1h12.5v-3.1h1c0.9,0,1.6-0.7,1.6-1.6V45
			C51.5,44.1,50.8,43.4,49.9,43.4z M45.2,37.7l1.3,1.3h-1.3V37.7z M37.6,36.8h6.3v3.5h3.7v2.6h-10V36.8z M47.6,53.2h-10v-1.8h10
			V53.2z M47.6,50.3h-10v-1.8h10V50.3z M50.4,49.8c0,0.3-0.2,0.5-0.5,0.5h-1v-3.1H36.4v3.1h-1.1c-0.3,0-0.5-0.2-0.5-0.5V45
			c0-0.3,0.2-0.5,0.5-0.5h14.6c0.3,0,0.5,0.2,0.5,0.5V49.8z"/>
	</g>
</g>
<g>
	<g>
		<path fill="#3399FF" d="M49.9,62.4h-0.4c0,0,0,0,0-0.1V60c0-0.4-0.3-0.7-0.7-0.7v-0.7l-4.1-4.1h-8.5v4.7c-0.4,0-0.7,0.3-0.7,0.7
			v2.4c0,0,0,0,0,0.1h-0.4c-0.9,0-1.6,0.7-1.6,1.6v4.8c0,0.9,0.7,1.6,1.6,1.6h1.1v3.1h12.5v-3.1h1c0.9,0,1.6-0.7,1.6-1.6V64
			C51.5,63.1,50.8,62.4,49.9,62.4z M45.2,56.7l1.3,1.3h-1.3V56.7z M37.6,55.8h6.3v3.5h3.7v2.6h-10V55.8z M47.6,72.2h-10v-1.8h10
			V72.2z M47.6,69.3h-10v-1.8h10V69.3z M50.4,68.8c0,0.3-0.2,0.5-0.5,0.5h-1v-3.1H36.4v3.1h-1.1c-0.3,0-0.5-0.2-0.5-0.5V64
			c0-0.3,0.2-0.5,0.5-0.5h14.6c0.3,0,0.5,0.2,0.5,0.5V68.8z"/>
	</g>
</g>
</svg>
