<?xml version="1.0" encoding="utf-8"?>
<!-- Generator: Adobe Illustrator 18.0.0, SVG Export Plug-In . SVG Version: 6.00 Build 0)  -->
<!DOCTYPE svg PUBLIC "-//W3C//DTD SVG 1.1//EN" "http://www.w3.org/Graphics/SVG/1.1/DTD/svg11.dtd">
<svg version="1.1" id="Слой_1" xmlns="http://www.w3.org/2000/svg" xmlns:xlink="http://www.w3.org/1999/xlink" x="0px" y="0px"
	 width="58px" height="116px" viewBox="0 0 58 116" enable-background="new 0 0 58 116" xml:space="preserve">
<path fill="#FFFFFF" d="M29,0C13,0,0,13,0,29s13,29,29,29s29-13,29-29S45,0,29,0z M44.9,40.7l-4.2,4.2L29,33.2L17.3,44.9l-4.2-4.2
	L24.8,29L13.1,17.3l4.2-4.2L29,24.8l11.7-11.7l4.2,4.2L33.2,29L44.9,40.7z"/>
<path fill="#3399FF" d="M29,58C13,58,0,71,0,87s13,29,29,29s29-13,29-29S45,58,29,58z M44.9,98.7l-4.2,4.2L29,91.2l-11.7,11.7
	l-4.2-4.2L24.8,87L13.1,75.3l4.2-4.2L29,82.8l11.7-11.7l4.2,4.2L33.2,87L44.9,98.7z"/>
</svg>
