<?xml version="1.0" encoding="utf-8"?>
<!-- Generator: Adobe Illustrator 18.0.0, SVG Export Plug-In . SVG Version: 6.00 Build 0)  -->
<!DOCTYPE svg PUBLIC "-//W3C//DTD SVG 1.1//EN" "http://www.w3.org/Graphics/SVG/1.1/DTD/svg11.dtd">
<svg version="1.1" xmlns="http://www.w3.org/2000/svg" xmlns:xlink="http://www.w3.org/1999/xlink" x="0px" y="0px"
	 viewBox="0 0 50 50" enable-background="new 0 0 50 50" xml:space="preserve">
<g id="Слой_1" display="none">
	<circle display="inline" fill="none" stroke="#57CD9D" stroke-miterlimit="10" cx="25" cy="25" r="25"/>
</g>
<g id="Слой_2">
	<g>
		<path fill="#E23C30" d="M40.4,28.6c-0.6-0.9-1.8-1.1-2.7-0.6c-4.4,2.9-9.4,4.2-14.4,4.2c-0.1,1.3-0.1,2.6,0,3.9
			c5.7,0,11.5-1.5,16.5-4.8C40.7,30.7,40.9,29.5,40.4,28.6C40.4,28.6,40.4,28.6,40.4,28.6z"/>
		<path fill="#E23C30" d="M29.5,37.3c-2,0.4-4,0.6-5.9,0.6c0.3,1.3,0.7,2.6,1.3,3.8c1.8-0.1,3.6-0.3,5.4-0.6
			c1.1-0.2,1.7-1.2,1.5-2.3C31.6,37.7,30.6,37.1,29.5,37.3z"/>
		<path fill="#E23C30" d="M41.3,20.8c-0.1-0.1-0.2-0.3-0.3-0.4c-0.8-0.7-2-0.7-2.7,0c-3.6,3.7-8.3,5.8-13.4,6.1
			c-0.6,1.3-1,2.6-1.3,3.9c0.1,0,0.2,0,0.2,0c6.5-0.1,12.6-2.7,17.2-7.3C41.7,22.5,41.8,21.5,41.3,20.8z"/>
		<path fill="#E23C30" d="M19.3,19.5c-1-0.8-2.2-1.4-3.4-1.9c-2.9,4.9-4.4,10.7-4.1,16.7c0.1,1,0.9,1.8,1.9,1.8c0,0,0.1,0,0.1,0
			c1.1-0.1,1.9-1,1.8-2C15.4,28.8,16.7,23.8,19.3,19.5z"/>
		<path fill="#E23C30" d="M10.3,16.1c-0.8,1.6-1.6,3.3-2.2,5c-0.3,1,0.2,2.1,1.2,2.5c1,0.3,2.1-0.2,2.5-1.2c0.7-1.9,1.5-3.7,2.5-5.4
			C13,16.5,11.6,16.2,10.3,16.1z"/>
		<path fill="#E23C30" d="M23.4,23.6c-0.8-1.1-1.7-2.1-2.8-3.1c0,0.1-0.1,0.1-0.1,0.2c-3.2,5.7-4,12.3-2.3,18.6
			c0.2,0.9,1,1.4,1.9,1.4c0.2,0,0.3,0,0.5-0.1c1-0.3,1.6-1.4,1.3-2.4C20.6,33.4,21.1,28.2,23.4,23.6z"/>
		<path fill="#E23C30" d="M21.5,12c4.7,2.4,8.4,6,10.8,10.3c1.2-0.5,2.3-1.2,3.3-1.9c-2.8-5-7.1-9.2-12.4-11.9
			c-0.9-0.5-2-0.1-2.6,0.8c0,0,0,0.1-0.1,0.1C20.1,10.3,20.5,11.5,21.5,12z"/>
		<path fill="#E23C30" d="M37.1,19.2c1-0.9,1.9-1.9,2.7-3c-1-1.5-2-3-3.2-4.4c-0.7-0.8-1.9-0.9-2.7-0.2c-0.8,0.7-0.9,1.9-0.2,2.7
			C34.9,15.9,36.1,17.5,37.1,19.2z"/>
		<path fill="#E23C30" d="M14.6,15.3c5,1.3,9.2,4.3,12,8.6c1.4-0.1,2.7-0.4,4-0.9c0-0.1-0.1-0.1-0.1-0.2c-3.3-5.6-8.6-9.6-15-11.2
			c-0.9-0.2-1.7,0.2-2.2,0.9c-0.1,0.1-0.2,0.3-0.2,0.5C13,13.9,13.6,15,14.6,15.3z"/>
	</g>
</g>
<g id="Слой_3" display="none">
	<g display="inline">
		<path fill="#3399FF" d="M14.4,14.6c0.5-1,0.8-1.9,0.7-3c-1.1,0.8-2.1,1.8-3,2.8C12.9,14.5,13.7,14.5,14.4,14.6z"/>
		<path fill="#3399FF" d="M41.2,27.9c0.2-0.9,0.3-1.9,0.3-2.9c0-4-1.4-7.7-3.8-10.6c-3.7-1.5-7.7-2.1-10.4-0.8
			c-1.3,0.6-2.3,1.6-3,2.7c1.5,0.5,3,1.2,4.7,1.9C33.9,20.6,37.8,23.6,41.2,27.9z"/>
		<path fill="#3399FF" d="M26.5,12.3c2.4-1.2,5.5-1.1,8.6-0.3c-2.5-2-5.6-3.3-9-3.5c-2.1,1.2-5,3.2-7.2,6.6c1.4,0.2,2.6,0.5,3.8,0.8
			C23.6,14.4,24.8,13.2,26.5,12.3z"/>
		<path fill="#3399FF" d="M17.3,14.8c1.8-2.9,3.9-4.9,5.9-6.3c-2.4,0.2-4.7,1-6.8,2.2c0.2,1.5,0,2.8-0.5,4
			C16.4,14.7,16.9,14.8,17.3,14.8z"/>
		<path fill="#3399FF" d="M15,20.2c0.4-1.5,1-2.8,1.6-4c-0.4,0-0.9-0.1-1.3-0.1c-0.7,1.1-1.7,2.3-2.7,3.5l-0.1,0.2
			c-1.9,2.2-3,4.5-3.8,8c0.7,4.1,2.9,7.7,6,10.2C13.7,32.6,13.3,25.8,15,20.2z"/>
		<path fill="#3399FF" d="M28.3,19.6c-1.7-0.8-3.2-1.4-4.8-2c-0.8,2-0.9,4.2-0.4,6.1c0.7,2.7,2.6,5.4,4.6,8.2
			c0.6,0.8,1.2,1.7,1.7,2.6c1,1.5,2.1,3.4,2.9,5.2c4-2,7.1-5.6,8.4-10C37.4,25.2,33.4,22,28.3,19.6z"/>
		<path fill="#3399FF" d="M28.2,35.4c-0.6-0.9-1.2-1.7-1.7-2.5c-2.1-3-4-5.8-4.8-8.7c-0.6-2.2-0.5-4.7,0.4-6.9
			c-1.2-0.3-2.5-0.6-3.9-0.8c-0.7,1.2-1.3,2.6-1.7,4.2c-1.7,5.8-1.1,13-0.2,18.5c2.5,1.5,5.4,2.4,8.6,2.4c2.2,0,4.3-0.4,6.2-1.2
			C30.2,38.8,29.2,37.1,28.2,35.4z"/>
		<path fill="#3399FF" d="M11.2,18.8l0.1-0.2c0.8-1,1.6-1.9,2.2-2.7c-0.8-0.1-1.6-0.1-2.5-0.1c-1.5,2.2-2.4,4.8-2.7,7.6
			C9.1,21.7,10,20.2,11.2,18.8z"/>
	</g>
</g>
<g id="Слой_4" display="none">
	<g display="inline">
		<g>
			<path fill="#FF9160" d="M29.4,32c2.3-0.5,4.4-1.7,6.2-3.5c4.9-4.9,5.1-12.7,0.4-17.4s-12.5-4.5-17.4,0.4c-1.8,1.8-2.9,4-3.5,6.2
				L29.4,32z"/>
			<circle fill="#FF9160" cx="36.1" cy="36.8" r="3.3"/>
			<path fill="#FF9160" d="M15,20.9l11.3,11.3c0,0-6.8-0.9-8.3,0.7c-1.6,1.6-6.7,6.7-6.9,6.9s-0.8,0.3-1.1,0
				c-0.3-0.3-2.2-2.2-2.5-2.5c-0.3-0.3-0.5-0.8,0-1.3c0.5-0.5,5.9-5.9,7-7C15.5,28,15,20.9,15,20.9z"/>
		</g>
	</g>
</g>
<g id="Слой_5" display="none">
	<g display="inline">
		<path fill="#3879BB" d="M29.4,5.4c-3.8-2.1-9.5,0.8-12.7,6.6c-2.8,5.1-2.7,10.7,0,13.4l-0.4,1.9L9.3,40l1.6,0.9L18,28l1.2-1.2
			c3.7,0.9,8.5-2,11.4-7.1C33.8,13.9,33.3,7.5,29.4,5.4z M17.4,27.4l-0.3-0.2l0.3-1.3c0.2,0.1,0.3,0.2,0.5,0.3
			c0.2,0.1,0.3,0.1,0.5,0.2L17.4,27.4z"/>
		<g>
			<path fill="#3879BB" d="M30,31.5c1.9,0.1,2.5,1.9,3.1,3.9l0.1,0.2c0.2,0.8,0.8,1.3,1.5,1.5c1,0.2,2.2-0.2,3.1-1.1
				c0.9-0.9,1.2-2,0.9-2.9c-0.2-0.7-0.7-1.1-1.3-1.2c-0.7-0.1-4.2-0.9-4.6-2.8c-0.1-0.7-0.1-1.4,0.2-2c-2.2,0.6-3.8,2.4-4.3,4.6
				C29.1,31.6,29.5,31.5,30,31.5z"/>
			<path fill="#3879BB" d="M34.7,26.9c-0.1,0-0.2,0-0.3,0c-0.6,0.5-0.7,1.3-0.6,2.1c0.2,0.8,1.8,1.6,3.8,2c1,0.2,1.7,0.9,2,1.9
				c0.4,1.3,0,2.7-1.1,3.9c-0.9,0.9-2.1,1.4-3.1,1.4c-0.3,0-0.6,0-0.8-0.1c-1.1-0.3-1.9-1-2.2-2.1l-0.1-0.2
				c-0.7-2.1-1.1-3.2-2.3-3.3c-0.4,0-0.9,0-1.2,0.4c0,0.1-0.1,0.1-0.1,0.2c0.1,3.3,2.7,5.9,6,5.9c3.3,0,6-2.7,6-6
				C40.7,29.6,38,26.9,34.7,26.9z"/>
		</g>
	</g>
</g>
<g id="Слой_6" display="none">
	<path display="inline" fill="#57CD9D" d="M37.7,21.8c-1,0-2,0.2-2.9,0.7l-1.7-6.1c0.2-0.2,0.5-0.5,0.9-0.8c0.7-0.6,1-1.4,0.7-2
		c-0.2-0.5-0.7-0.9-1.3-0.9h-5.1c-0.4,0-0.7,0.3-0.7,0.7c0,0.4,0.3,0.7,0.7,0.7l5,0c0,0.1-0.1,0.2-0.2,0.3c-0.9,0.7-1.3,1.2-1.3,1.2
		L31.5,16l0.5,1.9H18.9L18,15.7h2.7c0.3,0,0.6-0.3,0.6-0.6c0-0.3-0.3-0.6-0.6-0.6h-5.1c-0.3,0-0.6,0.3-0.6,0.6
		c0,0.3,0.3,0.6,0.6,0.6h1.1c0,0.1,0,0.1,0,0.2l0.9,2.1c0,0,0,0,0,0l-2.4,4.2c-0.8-0.3-1.6-0.5-2.5-0.5c-3.7,0-6.7,3-6.7,6.7
		c0,3.7,3,6.7,6.7,6.7c3.5,0,6.4-2.7,6.7-6.1H20c0.2,0.8,0.7,1.5,1.4,1.9l-0.5,1.1h-1.1c-0.2,0-0.3,0.1-0.3,0.3s0.1,0.3,0.3,0.3h2.6
		c0.2,0,0.3-0.1,0.3-0.3s-0.1-0.3-0.3-0.3h-0.9l0.4-0.9c0.3,0.1,0.5,0.1,0.8,0.1c1.5,0,2.8-1.2,2.8-2.8c0-0.4-0.1-0.8-0.2-1.1
		l7.9-5.4l0.3,1.2C32,24.6,31,26.5,31,28.6c0,3.7,3,6.7,6.7,6.7s6.7-3,6.7-6.7C44.5,24.9,41.4,21.8,37.7,21.8z M12.7,34.1
		c-3.1,0-5.5-2.5-5.5-5.6c0-3.1,2.5-5.5,5.5-5.5c0.7,0,1.3,0.1,1.9,0.3l-2.9,5c-0.1,0.2-0.1,0.4,0,0.6c0.1,0.2,0.3,0.3,0.5,0.3h5.9
		C17.9,32,15.5,34.1,12.7,34.1z M13.3,28.1l2.4-4.1c1.4,0.9,2.4,2.4,2.5,4.1H13.3z M19.4,28.1c-0.2-2.2-1.4-4.1-3.1-5.2l2-3.5l3,6.9
		c-0.6,0.4-1.1,1-1.3,1.7H19.4z M21.5,26.9l0.5,1.2h-1.4C20.8,27.6,21.1,27.2,21.5,26.9z M21.6,30.6c-0.5-0.3-0.8-0.8-1-1.3h1.5
		L21.6,30.6z M22.7,30.9c-0.2,0-0.4,0-0.6-0.1l0.6-1.6H23c0.2,0,0.4-0.1,0.5-0.3c0-0.1,0.1-0.1,0.1-0.2l1.2-0.8
		c0.1,0.2,0.2,0.5,0.2,0.8C24.9,29.9,23.9,30.9,22.7,30.9z M22.7,26.6C22.7,26.6,22.7,26.6,22.7,26.6c0.2,0,0.4,0,0.6,0.1L23,27.3
		L22.7,26.6z M23.8,27.2l0.1-0.3c0.1,0,0.1,0.1,0.2,0.1L23.8,27.2z M24.5,26.6c-0.1-0.1-0.3-0.2-0.4-0.3l0.6-1.5h1.1
		c0.2,0,0.3-0.1,0.3-0.3s-0.1-0.3-0.3-0.3h-2.6c-0.2,0-0.3,0.1-0.3,0.3s0.1,0.3,0.3,0.3H24l-0.5,1.2C23.3,26,23,26,22.7,26
		c-0.1,0-0.2,0-0.3,0l-2.9-6.7h12.9l0.5,1.6L24.5,26.6z M37.7,34.1c-3.1,0-5.5-2.5-5.5-5.6c0-1.6,0.6-3,1.7-4l0.5,1.9l2.6,2.9
		c0.1,0.2,0.4,0.3,0.6,0.3c0.2,0,0.3-0.1,0.5-0.2c0.3-0.3,0.3-0.7,0.1-1.1l-2.3-2.7l-0.6-2.1c0.8-0.4,1.6-0.6,2.6-0.6
		c3.1,0,5.5,2.5,5.5,5.5C43.3,31.7,40.8,34.1,37.7,34.1z"/>
</g>
</svg>
